{
	"patcher" : 	{
		"fileversion" : 1,
		"rect" : [ 532.0, 176.0, 640.0, 506.0 ],
		"bglocked" : 0,
		"defrect" : [ 532.0, 176.0, 640.0, 506.0 ],
		"openrect" : [ 0.0, 0.0, 0.0, 0.0 ],
		"openinpresentation" : 0,
		"default_fontsize" : 12.0,
		"default_fontface" : 0,
		"default_fontname" : "Arial",
		"gridonopen" : 0,
		"gridsize" : [ 15.0, 15.0 ],
		"gridsnaponopen" : 0,
		"toolbarvisible" : 1,
		"boxanimatetime" : 200,
		"imprint" : 0,
		"enablehscroll" : 1,
		"enablevscroll" : 1,
		"devicewidth" : 0.0,
		"boxes" : [ 			{
				"box" : 				{
					"maxclass" : "newobj",
					"text" : "buffer~ free_elastic /Users/josh/data/free_elastic_play/TrippyVideo.wav -1 2",
					"numinlets" : 1,
					"patching_rect" : [ 10.0, 137.0, 411.0, 20.0 ],
					"numoutlets" : 2,
					"id" : "obj-14",
					"fontname" : "Arial",
					"outlettype" : [ "float", "bang" ],
					"fontsize" : 12.0
				}

			}
, 			{
				"box" : 				{
					"maxclass" : "newobj",
					"text" : "This sounds best at ~2.5 times the original playback rate",
					"linecount" : 2,
					"numinlets" : 0,
					"patching_rect" : [ 445.0, 168.0, 190.0, 34.0 ],
					"numoutlets" : 0,
					"id" : "obj-13",
					"fontname" : "Arial",
					"fontsize" : 12.0
				}

			}
, 			{
				"box" : 				{
					"maxclass" : "message",
					"text" : "1.",
					"numinlets" : 2,
					"patching_rect" : [ 233.0, 281.0, 32.5, 18.0 ],
					"numoutlets" : 1,
					"id" : "obj-10",
					"fontname" : "Arial",
					"outlettype" : [ "" ],
					"fontsize" : 12.0
				}

			}
, 			{
				"box" : 				{
					"maxclass" : "newobj",
					"text" : "loadbang",
					"numinlets" : 1,
					"patching_rect" : [ 240.0, 233.0, 60.0, 20.0 ],
					"numoutlets" : 1,
					"id" : "obj-11",
					"fontname" : "Arial",
					"outlettype" : [ "bang" ],
					"fontsize" : 12.0
				}

			}
, 			{
				"box" : 				{
					"maxclass" : "newobj",
					"text" : "buffer~ free_elastic /Users/josh/data/free_elastic_play/bach_prelude2.wav -1 2",
					"numinlets" : 1,
					"patching_rect" : [ 14.0, 176.0, 428.0, 20.0 ],
					"numoutlets" : 2,
					"id" : "obj-12",
					"fontname" : "Arial",
					"outlettype" : [ "float", "bang" ],
					"fontsize" : 12.0
				}

			}
, 			{
				"box" : 				{
					"maxclass" : "newobj",
					"text" : "buffer~ free_elastic /Users/josh/data/free_elastic_play/ecuador.wav -1 2",
					"numinlets" : 1,
					"patching_rect" : [ 212.0, 98.0, 392.0, 20.0 ],
					"numoutlets" : 2,
					"id" : "obj-9",
					"fontname" : "Arial",
					"outlettype" : [ "float", "bang" ],
					"fontsize" : 12.0
				}

			}
, 			{
				"box" : 				{
					"maxclass" : "newobj",
					"text" : "buffer~ free_elastic /Users/josh/data/free_elastic_play/puja.wav -1 2",
					"numinlets" : 1,
					"patching_rect" : [ 218.0, 11.0, 371.0, 20.0 ],
					"numoutlets" : 2,
					"id" : "obj-5",
					"fontname" : "Arial",
					"outlettype" : [ "float", "bang" ],
					"fontsize" : 12.0
				}

			}
, 			{
				"box" : 				{
					"maxclass" : "newobj",
					"text" : "buffer~ free_elastic /Users/josh/data/free_elastic_play/bach.wav -1 2",
					"numinlets" : 1,
					"patching_rect" : [ 216.0, 70.0, 374.0, 20.0 ],
					"numoutlets" : 2,
					"id" : "obj-4",
					"fontname" : "Arial",
					"outlettype" : [ "float", "bang" ],
					"fontsize" : 12.0
				}

			}
, 			{
				"box" : 				{
					"maxclass" : "ezdac~",
					"numinlets" : 2,
					"patching_rect" : [ 290.0, 446.0, 45.0, 45.0 ],
					"numoutlets" : 0,
					"id" : "obj-8"
				}

			}
, 			{
				"box" : 				{
					"maxclass" : "flonum",
					"numinlets" : 1,
					"patching_rect" : [ 272.0, 323.0, 50.0, 20.0 ],
					"numoutlets" : 2,
					"id" : "obj-7",
					"fontname" : "Arial",
					"outlettype" : [ "float", "bang" ],
					"fontsize" : 12.0
				}

			}
, 			{
				"box" : 				{
					"maxclass" : "flonum",
					"numinlets" : 1,
					"patching_rect" : [ 193.0, 319.0, 50.0, 20.0 ],
					"numoutlets" : 2,
					"id" : "obj-6",
					"fontname" : "Arial",
					"outlettype" : [ "float", "bang" ],
					"fontsize" : 12.0
				}

			}
, 			{
				"box" : 				{
					"maxclass" : "message",
					"text" : "stop",
					"numinlets" : 2,
					"patching_rect" : [ 403.0, 321.0, 33.0, 18.0 ],
					"numoutlets" : 1,
					"id" : "obj-3",
					"fontname" : "Arial",
					"outlettype" : [ "" ],
					"fontsize" : 12.0
				}

			}
, 			{
				"box" : 				{
					"maxclass" : "message",
					"text" : "startloop",
					"numinlets" : 2,
					"patching_rect" : [ 339.0, 321.0, 57.0, 18.0 ],
					"numoutlets" : 1,
					"id" : "obj-2",
					"fontname" : "Arial",
					"outlettype" : [ "" ],
					"fontsize" : 12.0
				}

			}
, 			{
				"box" : 				{
					"maxclass" : "newobj",
					"text" : "buffer~ free_elastic /Users/josh/data/free_elastic_play/meditative.wav -1 2",
					"numinlets" : 1,
					"patching_rect" : [ 217.0, 39.0, 403.0, 20.0 ],
					"numoutlets" : 2,
					"id" : "obj-24",
					"fontname" : "Arial",
					"outlettype" : [ "float", "bang" ],
					"fontsize" : 12.0
				}

			}
, 			{
				"box" : 				{
					"maxclass" : "newobj",
					"text" : "free_elastic",
					"numinlets" : 3,
					"patching_rect" : [ 278.0, 376.0, 72.0, 20.0 ],
					"numoutlets" : 2,
					"id" : "obj-1",
					"fontname" : "Arial",
					"outlettype" : [ "signal", "signal" ],
					"fontsize" : 12.0
				}

			}
 ],
		"lines" : [ 			{
				"patchline" : 				{
					"source" : [ "obj-1", 1 ],
					"destination" : [ "obj-8", 1 ],
					"hidden" : 0,
					"midpoints" : [  ]
				}

			}
, 			{
				"patchline" : 				{
					"source" : [ "obj-1", 0 ],
					"destination" : [ "obj-8", 0 ],
					"hidden" : 0,
					"midpoints" : [  ]
				}

			}
, 			{
				"patchline" : 				{
					"source" : [ "obj-6", 0 ],
					"destination" : [ "obj-1", 0 ],
					"hidden" : 0,
					"midpoints" : [  ]
				}

			}
, 			{
				"patchline" : 				{
					"source" : [ "obj-7", 0 ],
					"destination" : [ "obj-1", 1 ],
					"hidden" : 0,
					"midpoints" : [  ]
				}

			}
, 			{
				"patchline" : 				{
					"source" : [ "obj-3", 0 ],
					"destination" : [ "obj-1", 2 ],
					"hidden" : 0,
					"midpoints" : [  ]
				}

			}
, 			{
				"patchline" : 				{
					"source" : [ "obj-2", 0 ],
					"destination" : [ "obj-1", 2 ],
					"hidden" : 0,
					"midpoints" : [  ]
				}

			}
, 			{
				"patchline" : 				{
					"source" : [ "obj-11", 0 ],
					"destination" : [ "obj-10", 0 ],
					"hidden" : 0,
					"midpoints" : [  ]
				}

			}
, 			{
				"patchline" : 				{
					"source" : [ "obj-10", 0 ],
					"destination" : [ "obj-6", 0 ],
					"hidden" : 0,
					"midpoints" : [  ]
				}

			}
, 			{
				"patchline" : 				{
					"source" : [ "obj-10", 0 ],
					"destination" : [ "obj-7", 0 ],
					"hidden" : 0,
					"midpoints" : [  ]
				}

			}
 ]
	}

}
