{
	"patcher" : 	{
		"fileversion" : 1,
		"rect" : [ 592.0, 71.0, 640.0, 506.0 ],
		"bglocked" : 0,
		"defrect" : [ 592.0, 71.0, 640.0, 506.0 ],
		"openrect" : [ 0.0, 0.0, 0.0, 0.0 ],
		"openinpresentation" : 0,
		"default_fontsize" : 12.0,
		"default_fontface" : 0,
		"default_fontname" : "Arial",
		"gridonopen" : 0,
		"gridsize" : [ 15.0, 15.0 ],
		"gridsnaponopen" : 0,
		"toolbarvisible" : 1,
		"boxanimatetime" : 200,
		"imprint" : 0,
		"enablehscroll" : 1,
		"enablevscroll" : 1,
		"boxes" : [ 			{
				"box" : 				{
					"maxclass" : "comment",
					"text" : "Click on the bang to test",
					"patching_rect" : [ 282.0, 214.0, 150.0, 20.0 ],
					"id" : "obj-13",
					"numinlets" : 1,
					"fontname" : "Arial",
					"numoutlets" : 0,
					"fontsize" : 12.0
				}

			}
, 			{
				"box" : 				{
					"maxclass" : "message",
					"text" : "read anton.aif",
					"patching_rect" : [ 506.0, 198.0, 84.0, 18.0 ],
					"id" : "obj-11",
					"numinlets" : 2,
					"fontname" : "Arial",
					"numoutlets" : 1,
					"outlettype" : [ "" ],
					"fontsize" : 12.0
				}

			}
, 			{
				"box" : 				{
					"maxclass" : "message",
					"text" : "read cherokee.aif",
					"patching_rect" : [ 528.0, 265.0, 103.0, 18.0 ],
					"id" : "obj-6",
					"numinlets" : 2,
					"fontname" : "Arial",
					"numoutlets" : 1,
					"outlettype" : [ "" ],
					"fontsize" : 12.0
				}

			}
, 			{
				"box" : 				{
					"maxclass" : "message",
					"text" : "read cello-f2.aif",
					"patching_rect" : [ 434.0, 241.0, 93.0, 18.0 ],
					"id" : "obj-10",
					"numinlets" : 2,
					"fontname" : "Arial",
					"numoutlets" : 1,
					"outlettype" : [ "" ],
					"fontsize" : 12.0
				}

			}
, 			{
				"box" : 				{
					"maxclass" : "newobj",
					"text" : "buffer~ tone1",
					"patching_rect" : [ 446.0, 374.0, 82.0, 20.0 ],
					"id" : "obj-9",
					"numinlets" : 1,
					"fontname" : "Arial",
					"numoutlets" : 2,
					"outlettype" : [ "float", "bang" ],
					"fontsize" : 12.0
				}

			}
, 			{
				"box" : 				{
					"maxclass" : "newobj",
					"text" : "loadbang",
					"patching_rect" : [ 523.0, 99.0, 60.0, 20.0 ],
					"id" : "obj-3",
					"numinlets" : 1,
					"fontname" : "Arial",
					"numoutlets" : 1,
					"outlettype" : [ "bang" ],
					"fontsize" : 12.0
				}

			}
, 			{
				"box" : 				{
					"maxclass" : "message",
					"text" : "440",
					"patching_rect" : [ 100.0, 263.0, 32.5, 18.0 ],
					"id" : "obj-2",
					"numinlets" : 2,
					"fontname" : "Arial",
					"numoutlets" : 1,
					"outlettype" : [ "" ],
					"fontsize" : 12.0
				}

			}
, 			{
				"box" : 				{
					"maxclass" : "comment",
					"text" : "Note: argument #1 is the MIDI note for the desired tone (e.g. 69 for a=440Hz)",
					"linecount" : 3,
					"patching_rect" : [ 73.0, 136.0, 150.0, 48.0 ],
					"id" : "obj-8",
					"numinlets" : 1,
					"fontname" : "Arial",
					"numoutlets" : 0,
					"fontsize" : 12.0
				}

			}
, 			{
				"box" : 				{
					"maxclass" : "newobj",
					"text" : "mtof",
					"patching_rect" : [ 189.0, 284.0, 34.0, 19.0 ],
					"id" : "obj-41",
					"numinlets" : 1,
					"fontname" : "Verdana",
					"numoutlets" : 1,
					"outlettype" : [ "" ],
					"fontsize" : 10.0
				}

			}
, 			{
				"box" : 				{
					"maxclass" : "message",
					"text" : "#1",
					"patching_rect" : [ 181.0, 244.0, 32.5, 18.0 ],
					"id" : "obj-7",
					"numinlets" : 2,
					"fontname" : "Arial",
					"numoutlets" : 1,
					"outlettype" : [ "" ],
					"fontsize" : 12.0
				}

			}
, 			{
				"box" : 				{
					"maxclass" : "inlet",
					"hint" : "bang to play note",
					"annotation" : "bang to play note",
					"patching_rect" : [ 240.0, 113.0, 25.0, 25.0 ],
					"id" : "obj-5",
					"numinlets" : 0,
					"numoutlets" : 1,
					"outlettype" : [ "" ],
					"comment" : "bang to play note"
				}

			}
, 			{
				"box" : 				{
					"maxclass" : "newobj",
					"text" : "loadbang",
					"patching_rect" : [ 183.0, 201.0, 56.0, 19.0 ],
					"id" : "obj-32",
					"numinlets" : 1,
					"fontname" : "Verdana",
					"numoutlets" : 1,
					"outlettype" : [ "bang" ],
					"fontsize" : 10.0
				}

			}
, 			{
				"box" : 				{
					"maxclass" : "newobj",
					"text" : "onecopy",
					"patching_rect" : [ 77.0, 202.0, 55.0, 20.0 ],
					"id" : "obj-4",
					"numinlets" : 1,
					"fontname" : "Arial",
					"numoutlets" : 0,
					"fontsize" : 11.595187,
					"color" : [ 0.7, 0.7, 0.7, 1.0 ]
				}

			}
, 			{
				"box" : 				{
					"maxclass" : "ezdac~",
					"patching_rect" : [ 199.0, 418.0, 45.0, 45.0 ],
					"id" : "obj-28",
					"numinlets" : 2,
					"numoutlets" : 0
				}

			}
, 			{
				"box" : 				{
					"maxclass" : "toggle",
					"patching_rect" : [ 300.0, 140.0, 20.0, 20.0 ],
					"id" : "obj-37",
					"numinlets" : 1,
					"numoutlets" : 1,
					"outlettype" : [ "int" ]
				}

			}
, 			{
				"box" : 				{
					"maxclass" : "newobj",
					"text" : "metro 1000",
					"patching_rect" : [ 300.0, 188.0, 69.0, 19.0 ],
					"id" : "obj-36",
					"numinlets" : 2,
					"fontname" : "Verdana",
					"numoutlets" : 1,
					"outlettype" : [ "bang" ],
					"fontsize" : 10.0
				}

			}
, 			{
				"box" : 				{
					"maxclass" : "newobj",
					"text" : "*~",
					"patching_rect" : [ 201.0, 363.0, 32.5, 19.0 ],
					"id" : "obj-35",
					"numinlets" : 2,
					"fontname" : "Verdana",
					"numoutlets" : 1,
					"outlettype" : [ "signal" ],
					"fontsize" : 10.0
				}

			}
, 			{
				"box" : 				{
					"maxclass" : "newobj",
					"text" : "line~",
					"patching_rect" : [ 247.0, 327.0, 36.0, 19.0 ],
					"id" : "obj-34",
					"numinlets" : 2,
					"fontname" : "Verdana",
					"numoutlets" : 2,
					"outlettype" : [ "signal", "bang" ],
					"fontsize" : 10.0
				}

			}
, 			{
				"box" : 				{
					"maxclass" : "button",
					"patching_rect" : [ 260.0, 211.0, 20.0, 20.0 ],
					"id" : "obj-33",
					"numinlets" : 1,
					"numoutlets" : 1,
					"outlettype" : [ "bang" ]
				}

			}
, 			{
				"box" : 				{
					"maxclass" : "message",
					"text" : "0, 1. 15 0.25 235 0.0625 250 0.015625 400 0. 100",
					"linecount" : 4,
					"patching_rect" : [ 253.0, 250.0, 84.0, 53.0 ],
					"id" : "obj-30",
					"numinlets" : 2,
					"fontname" : "Verdana",
					"numoutlets" : 1,
					"outlettype" : [ "" ],
					"fontsize" : 10.0
				}

			}
, 			{
				"box" : 				{
					"maxclass" : "newobj",
					"text" : "cycle~",
					"patching_rect" : [ 131.0, 316.0, 45.0, 20.0 ],
					"id" : "obj-1",
					"numinlets" : 2,
					"fontname" : "Arial",
					"numoutlets" : 1,
					"outlettype" : [ "signal" ],
					"fontsize" : 12.0
				}

			}
 ],
		"lines" : [ 			{
				"patchline" : 				{
					"source" : [ "obj-35", 0 ],
					"destination" : [ "obj-28", 1 ],
					"hidden" : 0,
					"midpoints" : [  ]
				}

			}
, 			{
				"patchline" : 				{
					"source" : [ "obj-1", 0 ],
					"destination" : [ "obj-35", 0 ],
					"hidden" : 0,
					"midpoints" : [  ]
				}

			}
, 			{
				"patchline" : 				{
					"source" : [ "obj-41", 0 ],
					"destination" : [ "obj-1", 0 ],
					"hidden" : 0,
					"midpoints" : [  ]
				}

			}
, 			{
				"patchline" : 				{
					"source" : [ "obj-2", 0 ],
					"destination" : [ "obj-1", 0 ],
					"hidden" : 0,
					"midpoints" : [  ]
				}

			}
, 			{
				"patchline" : 				{
					"source" : [ "obj-6", 0 ],
					"destination" : [ "obj-9", 0 ],
					"hidden" : 0,
					"midpoints" : [  ]
				}

			}
, 			{
				"patchline" : 				{
					"source" : [ "obj-10", 0 ],
					"destination" : [ "obj-9", 0 ],
					"hidden" : 0,
					"midpoints" : [  ]
				}

			}
, 			{
				"patchline" : 				{
					"source" : [ "obj-32", 0 ],
					"destination" : [ "obj-7", 0 ],
					"hidden" : 0,
					"midpoints" : [  ]
				}

			}
, 			{
				"patchline" : 				{
					"source" : [ "obj-33", 0 ],
					"destination" : [ "obj-30", 0 ],
					"hidden" : 0,
					"midpoints" : [  ]
				}

			}
, 			{
				"patchline" : 				{
					"source" : [ "obj-30", 0 ],
					"destination" : [ "obj-34", 0 ],
					"hidden" : 0,
					"midpoints" : [  ]
				}

			}
, 			{
				"patchline" : 				{
					"source" : [ "obj-34", 0 ],
					"destination" : [ "obj-35", 1 ],
					"hidden" : 0,
					"midpoints" : [  ]
				}

			}
, 			{
				"patchline" : 				{
					"source" : [ "obj-36", 0 ],
					"destination" : [ "obj-33", 0 ],
					"hidden" : 0,
					"midpoints" : [  ]
				}

			}
, 			{
				"patchline" : 				{
					"source" : [ "obj-37", 0 ],
					"destination" : [ "obj-36", 0 ],
					"hidden" : 0,
					"midpoints" : [  ]
				}

			}
, 			{
				"patchline" : 				{
					"source" : [ "obj-5", 0 ],
					"destination" : [ "obj-33", 0 ],
					"hidden" : 0,
					"midpoints" : [  ]
				}

			}
, 			{
				"patchline" : 				{
					"source" : [ "obj-7", 0 ],
					"destination" : [ "obj-41", 0 ],
					"hidden" : 0,
					"midpoints" : [  ]
				}

			}
, 			{
				"patchline" : 				{
					"source" : [ "obj-11", 0 ],
					"destination" : [ "obj-9", 0 ],
					"hidden" : 0,
					"midpoints" : [  ]
				}

			}
, 			{
				"patchline" : 				{
					"source" : [ "obj-3", 0 ],
					"destination" : [ "obj-10", 0 ],
					"hidden" : 0,
					"midpoints" : [  ]
				}

			}
, 			{
				"patchline" : 				{
					"source" : [ "obj-35", 0 ],
					"destination" : [ "obj-28", 0 ],
					"hidden" : 0,
					"midpoints" : [  ]
				}

			}
 ]
	}

}
