{
	"patcher" : 	{
		"fileversion" : 1,
		"rect" : [ 86.0, 44.0, 980.0, 704.0 ],
		"bgcolor" : [ 0.352941, 0.352941, 0.352941, 1.0 ],
		"bglocked" : 0,
		"defrect" : [ 86.0, 44.0, 980.0, 704.0 ],
		"openrect" : [ 0.0, 0.0, 0.0, 0.0 ],
		"openinpresentation" : 1,
		"default_fontsize" : 10.0,
		"default_fontface" : 0,
		"default_fontname" : "Lucida Grande",
		"gridonopen" : 0,
		"gridsize" : [ 15.0, 15.0 ],
		"gridsnaponopen" : 0,
		"toolbarvisible" : 1,
		"boxanimatetime" : 200,
		"imprint" : 0,
		"enablehscroll" : 1,
		"enablevscroll" : 1,
		"boxes" : [ 			{
				"box" : 				{
					"maxclass" : "message",
					"text" : "100",
					"outlettype" : [ "" ],
					"fontsize" : 10.0,
					"numinlets" : 2,
					"patching_rect" : [ 691.0, 198.0, 32.5, 16.0 ],
					"id" : "obj-120",
					"fontname" : "Lucida Grande",
					"numoutlets" : 1
				}

			}
, 			{
				"box" : 				{
					"maxclass" : "newobj",
					"text" : "noteout",
					"fontsize" : 10.0,
					"numinlets" : 3,
					"patching_rect" : [ 690.0, 266.0, 48.0, 18.0 ],
					"id" : "obj-115",
					"fontname" : "Lucida Grande",
					"numoutlets" : 0
				}

			}
, 			{
				"box" : 				{
					"maxclass" : "flonum",
					"outlettype" : [ "float", "bang" ],
					"fontsize" : 10.0,
					"numinlets" : 1,
					"patching_rect" : [ 696.0, 228.0, 50.0, 18.0 ],
					"id" : "obj-112",
					"fontname" : "Lucida Grande",
					"numoutlets" : 2
				}

			}
, 			{
				"box" : 				{
					"maxclass" : "comment",
					"text" : "vzzxcv",
					"fontsize" : 10.0,
					"numinlets" : 1,
					"patching_rect" : [ 481.0, 347.0, 150.0, 18.0 ],
					"id" : "obj-111",
					"fontname" : "Lucida Grande",
					"numoutlets" : 0
				}

			}
, 			{
				"box" : 				{
					"maxclass" : "comment",
					"text" : "ccccccccccczzzzzzzzzzczczcvvzzcvzzxcvzxcvzxcvbasdfaszxcvzxcv",
					"linecount" : 3,
					"fontsize" : 10.0,
					"numinlets" : 1,
					"patching_rect" : [ -87.0, 555.0, 150.0, 42.0 ],
					"id" : "obj-109",
					"fontname" : "Lucida Grande",
					"numoutlets" : 0
				}

			}
, 			{
				"box" : 				{
					"maxclass" : "newobj",
					"text" : "cycle~",
					"outlettype" : [ "signal" ],
					"fontsize" : 10.0,
					"numinlets" : 2,
					"patching_rect" : [ 632.0, 249.0, 41.0, 18.0 ],
					"id" : "obj-107",
					"fontname" : "Lucida Grande",
					"numoutlets" : 1
				}

			}
, 			{
				"box" : 				{
					"maxclass" : "newobj",
					"text" : "mtof",
					"outlettype" : [ "" ],
					"fontsize" : 10.0,
					"numinlets" : 1,
					"patching_rect" : [ 642.0, 199.0, 34.0, 19.0 ],
					"id" : "obj-106",
					"fontname" : "Verdana",
					"numoutlets" : 1
				}

			}
, 			{
				"box" : 				{
					"maxclass" : "newobj",
					"text" : "pdrkbd",
					"outlettype" : [ "" ],
					"fontsize" : 10.0,
					"numinlets" : 0,
					"patching_rect" : [ 644.0, 163.0, 46.0, 18.0 ],
					"id" : "obj-23",
					"fontname" : "Lucida Grande",
					"numoutlets" : 1
				}

			}
, 			{
				"box" : 				{
					"maxclass" : "newobj",
					"text" : "print",
					"fontsize" : 10.0,
					"numinlets" : 1,
					"patching_rect" : [ 153.0, 369.0, 34.0, 18.0 ],
					"id" : "obj-104",
					"fontname" : "Lucida Grande",
					"numoutlets" : 0
				}

			}
, 			{
				"box" : 				{
					"maxclass" : "flonum",
					"outlettype" : [ "float", "bang" ],
					"fontsize" : 12.0,
					"numinlets" : 1,
					"patching_rect" : [ 646.0, 1343.0, 50.0, 20.0 ],
					"id" : "obj-38",
					"fontname" : "Arial",
					"numoutlets" : 2
				}

			}
, 			{
				"box" : 				{
					"maxclass" : "ezdac~",
					"numinlets" : 2,
					"patching_rect" : [ 471.0, 1547.0, 45.0, 45.0 ],
					"id" : "obj-55",
					"numoutlets" : 0
				}

			}
, 			{
				"box" : 				{
					"maxclass" : "newobj",
					"text" : "cycle~",
					"outlettype" : [ "signal" ],
					"fontsize" : 12.0,
					"numinlets" : 2,
					"patching_rect" : [ 475.0, 1470.0, 45.0, 20.0 ],
					"id" : "obj-56",
					"fontname" : "Arial",
					"numoutlets" : 1
				}

			}
, 			{
				"box" : 				{
					"maxclass" : "flonum",
					"outlettype" : [ "float", "bang" ],
					"fontsize" : 12.0,
					"numinlets" : 1,
					"patching_rect" : [ 470.0, 1350.0, 50.0, 20.0 ],
					"id" : "obj-58",
					"fontname" : "Arial",
					"numoutlets" : 2
				}

			}
, 			{
				"box" : 				{
					"maxclass" : "flonum",
					"outlettype" : [ "float", "bang" ],
					"fontsize" : 12.0,
					"numinlets" : 1,
					"patching_rect" : [ 474.0, 1437.0, 50.0, 20.0 ],
					"id" : "obj-61",
					"fontname" : "Arial",
					"numoutlets" : 2
				}

			}
, 			{
				"box" : 				{
					"maxclass" : "newobj",
					"text" : "mtof",
					"outlettype" : [ "" ],
					"fontsize" : 10.0,
					"numinlets" : 1,
					"patching_rect" : [ 477.0, 1393.0, 34.0, 19.0 ],
					"id" : "obj-63",
					"fontname" : "Verdana",
					"numoutlets" : 1
				}

			}
, 			{
				"box" : 				{
					"maxclass" : "flonum",
					"outlettype" : [ "float", "bang" ],
					"fontsize" : 12.0,
					"numinlets" : 1,
					"patching_rect" : [ 226.0, 1344.0, 50.0, 20.0 ],
					"id" : "obj-64",
					"fontname" : "Arial",
					"numoutlets" : 2
				}

			}
, 			{
				"box" : 				{
					"maxclass" : "ezadc~",
					"outlettype" : [ "signal", "signal" ],
					"numinlets" : 1,
					"patching_rect" : [ 156.0, 708.0, 45.0, 45.0 ],
					"id" : "obj-65",
					"numoutlets" : 2
				}

			}
, 			{
				"box" : 				{
					"maxclass" : "newobj",
					"text" : "*~ 1",
					"outlettype" : [ "signal" ],
					"fontsize" : 12.0,
					"numinlets" : 2,
					"patching_rect" : [ 66.0, 795.0, 32.5, 20.0 ],
					"id" : "obj-66",
					"fontname" : "Arial",
					"numoutlets" : 1
				}

			}
, 			{
				"box" : 				{
					"maxclass" : "comment",
					"text" : "v 0-2",
					"fontsize" : 12.0,
					"numinlets" : 1,
					"patching_rect" : [ 753.0, 739.0, 37.0, 20.0 ],
					"id" : "obj-67",
					"fontname" : "Arial",
					"numoutlets" : 0
				}

			}
, 			{
				"box" : 				{
					"maxclass" : "comment",
					"text" : "outputs the pitch trackers uncooked frequency and the confidence value",
					"linecount" : 2,
					"fontsize" : 12.0,
					"numinlets" : 1,
					"patching_rect" : [ 473.0, 939.0, 260.0, 34.0 ],
					"id" : "obj-68",
					"fontname" : "Arial",
					"numoutlets" : 0
				}

			}
, 			{
				"box" : 				{
					"maxclass" : "comment",
					"text" : "frequency",
					"fontsize" : 12.0,
					"numinlets" : 1,
					"patching_rect" : [ 473.0, 1049.0, 70.0, 20.0 ],
					"id" : "obj-69",
					"fontname" : "Arial",
					"numoutlets" : 0
				}

			}
, 			{
				"box" : 				{
					"maxclass" : "meter~",
					"outlettype" : [ "float" ],
					"numinlets" : 1,
					"patching_rect" : [ 103.0, 879.0, 80.0, 13.0 ],
					"id" : "obj-70",
					"numoutlets" : 1
				}

			}
, 			{
				"box" : 				{
					"maxclass" : "comment",
					"text" : "confidence",
					"fontsize" : 12.0,
					"numinlets" : 1,
					"patching_rect" : [ 253.0, 1209.0, 70.0, 20.0 ],
					"id" : "obj-71",
					"fontname" : "Arial",
					"numoutlets" : 0
				}

			}
, 			{
				"box" : 				{
					"maxclass" : "newobj",
					"text" : "loadmess max",
					"outlettype" : [ "" ],
					"fontsize" : 12.0,
					"hidden" : 1,
					"numinlets" : 1,
					"patching_rect" : [ 563.0, 749.0, 88.0, 20.0 ],
					"id" : "obj-72",
					"fontname" : "Arial",
					"numoutlets" : 1
				}

			}
, 			{
				"box" : 				{
					"maxclass" : "newobj",
					"text" : "r trackedfreq",
					"outlettype" : [ "" ],
					"fontsize" : 12.0,
					"numinlets" : 0,
					"patching_rect" : [ 153.0, 1019.0, 78.0, 20.0 ],
					"id" : "obj-73",
					"fontname" : "Arial",
					"numoutlets" : 1
				}

			}
, 			{
				"box" : 				{
					"maxclass" : "newobj",
					"text" : "s trackedfreq",
					"fontsize" : 12.0,
					"numinlets" : 1,
					"patching_rect" : [ 383.0, 1179.0, 80.0, 20.0 ],
					"id" : "obj-74",
					"fontname" : "Arial",
					"numoutlets" : 0
				}

			}
, 			{
				"box" : 				{
					"maxclass" : "nslider",
					"outlettype" : [ "int", "int" ],
					"numinlets" : 2,
					"patching_rect" : [ 565.0, 1009.0, 75.0, 198.0 ],
					"id" : "obj-75",
					"numoutlets" : 2
				}

			}
, 			{
				"box" : 				{
					"maxclass" : "live.slider",
					"varname" : "live.slider[5]",
					"outlettype" : [ "" ],
					"numinlets" : 1,
					"patching_rect" : [ 403.0, 999.0, 39.0, 95.0 ],
					"id" : "obj-76",
					"numoutlets" : 1,
					"saved_attribute_attributes" : [  ],
					"parameter_enable" : 1
				}

			}
, 			{
				"box" : 				{
					"maxclass" : "live.gain~",
					"varname" : "live.gain~[1]",
					"outlettype" : [ "" ],
					"numinlets" : 1,
					"patching_rect" : [ 153.0, 1089.0, 51.0, 172.0 ],
					"id" : "obj-77",
					"numoutlets" : 1,
					"saved_attribute_attributes" : "Sends a bang to the next outlet.",
					"parameter_enable" : 1
				}

			}
, 			{
				"box" : 				{
					"maxclass" : "newobj",
					"text" : "saw~",
					"outlettype" : [ "signal" ],
					"fontsize" : 12.0,
					"numinlets" : 2,
					"patching_rect" : [ 153.0, 1049.0, 39.0, 20.0 ],
					"id" : "obj-78",
					"fontname" : "Arial",
					"numoutlets" : 1
				}

			}
, 			{
				"box" : 				{
					"maxclass" : "newobj",
					"text" : "> 0.8",
					"outlettype" : [ "int" ],
					"fontsize" : 12.0,
					"numinlets" : 2,
					"patching_rect" : [ 383.0, 1099.0, 39.0, 20.0 ],
					"id" : "obj-79",
					"fontname" : "Arial",
					"numoutlets" : 1
				}

			}
, 			{
				"box" : 				{
					"maxclass" : "newobj",
					"text" : "gate 1 0",
					"outlettype" : [ "" ],
					"fontsize" : 12.0,
					"numinlets" : 2,
					"patching_rect" : [ 383.0, 1129.0, 54.0, 20.0 ],
					"id" : "obj-80",
					"fontname" : "Arial",
					"numoutlets" : 1
				}

			}
, 			{
				"box" : 				{
					"maxclass" : "newobj",
					"text" : "change",
					"outlettype" : [ "", "int", "int" ],
					"fontsize" : 12.0,
					"numinlets" : 1,
					"patching_rect" : [ 473.0, 1209.0, 50.0, 20.0 ],
					"id" : "obj-81",
					"fontname" : "Arial",
					"numoutlets" : 3
				}

			}
, 			{
				"box" : 				{
					"maxclass" : "kslider",
					"outlettype" : [ "int", "int" ],
					"range" : 64,
					"presentation_rect" : [ 15.0, 15.0, 444.0, 53.0 ],
					"hkeycolor" : [ 0.427451, 0.352941, 1.0, 1.0 ],
					"numinlets" : 2,
					"patching_rect" : [ 233.0, 1269.0, 444.0, 53.0 ],
					"id" : "obj-82",
					"numoutlets" : 2
				}

			}
, 			{
				"box" : 				{
					"maxclass" : "newobj",
					"text" : "ftom",
					"outlettype" : [ "" ],
					"fontsize" : 12.0,
					"numinlets" : 1,
					"patching_rect" : [ 473.0, 1179.0, 34.0, 20.0 ],
					"id" : "obj-83",
					"fontname" : "Arial",
					"numoutlets" : 1
				}

			}
, 			{
				"box" : 				{
					"maxclass" : "flonum",
					"outlettype" : [ "float", "bang" ],
					"fontsize" : 12.0,
					"numinlets" : 1,
					"patching_rect" : [ 453.0, 1079.0, 50.0, 20.0 ],
					"id" : "obj-84",
					"fontname" : "Arial",
					"numoutlets" : 2
				}

			}
, 			{
				"box" : 				{
					"maxclass" : "multislider",
					"contdata" : 1,
					"outlettype" : [ "", "" ],
					"spacing" : 1,
					"setstyle" : 1,
					"slidercolor" : [ 0.72549, 0.87451, 1.0, 1.0 ],
					"signed" : 1,
					"numinlets" : 1,
					"setminmax" : [ 0.0, 1.0 ],
					"patching_rect" : [ 263.0, 1049.0, 50.0, 150.0 ],
					"id" : "obj-85",
					"numoutlets" : 2
				}

			}
, 			{
				"box" : 				{
					"maxclass" : "flonum",
					"outlettype" : [ "float", "bang" ],
					"fontsize" : 12.0,
					"numinlets" : 1,
					"patching_rect" : [ 263.0, 1019.0, 50.0, 20.0 ],
					"id" : "obj-86",
					"fontname" : "Arial",
					"numoutlets" : 2
				}

			}
, 			{
				"box" : 				{
					"maxclass" : "comment",
					"text" : "C  Db  D   Eb E   F   Gb G  Ab  A  Bb   B",
					"fontsize" : 12.0,
					"numinlets" : 1,
					"patching_rect" : [ 563.0, 779.0, 224.0, 20.0 ],
					"id" : "obj-87",
					"fontname" : "Arial",
					"numoutlets" : 0
				}

			}
, 			{
				"box" : 				{
					"maxclass" : "live.slider",
					"varname" : "live.slider[4]",
					"outlettype" : [ "" ],
					"numinlets" : 1,
					"patching_rect" : [ 493.0, 789.0, 39.0, 95.0 ],
					"id" : "obj-88",
					"numoutlets" : 1,
					"saved_attribute_attributes" : [ 0.5, 0.5, 0.5, 1.0 ],
					"parameter_enable" : 1
				}

			}
, 			{
				"box" : 				{
					"maxclass" : "live.slider",
					"varname" : "live.slider[3]",
					"outlettype" : [ "" ],
					"numinlets" : 1,
					"patching_rect" : [ 433.0, 789.0, 39.0, 95.0 ],
					"id" : "obj-89",
					"numoutlets" : 1,
					"saved_attribute_attributes" : "[placeholder]",
					"parameter_enable" : 1
				}

			}
, 			{
				"box" : 				{
					"maxclass" : "live.slider",
					"varname" : "live.slider[2]",
					"outlettype" : [ "" ],
					"numinlets" : 1,
					"patching_rect" : [ 373.0, 789.0, 39.0, 95.0 ],
					"id" : "obj-90",
					"numoutlets" : 1,
					"saved_attribute_attributes" : "Specifies which one of the two outlets is to be open. The default is 0 (left outlet).",
					"parameter_enable" : 1
				}

			}
, 			{
				"box" : 				{
					"maxclass" : "live.slider",
					"varname" : "live.slider[1]",
					"outlettype" : [ "" ],
					"numinlets" : 1,
					"patching_rect" : [ 313.0, 789.0, 53.0, 95.0 ],
					"id" : "obj-91",
					"numoutlets" : 1,
					"saved_attribute_attributes" : "The word rect, followed by four numbers that specify the size of scaling rectangle to apply to fit the input image within, loads the graphics file from disc into RAM and displays it.",
					"parameter_enable" : 1
				}

			}
, 			{
				"box" : 				{
					"maxclass" : "live.slider",
					"varname" : "live.slider",
					"outlettype" : [ "" ],
					"numinlets" : 1,
					"patching_rect" : [ 223.0, 789.0, 39.0, 95.0 ],
					"id" : "obj-92",
					"numoutlets" : 1,
					"saved_attribute_attributes" : "Specifies the number of pixels by which the upper left corner of the subpatch is to be offset horizontally within the fpic object's viewing window. ",
					"parameter_enable" : 1
				}

			}
, 			{
				"box" : 				{
					"maxclass" : "multislider",
					"contdata" : 1,
					"outlettype" : [ "", "" ],
					"spacing" : 1,
					"setstyle" : 1,
					"slidercolor" : [ 0.807843, 0.894118, 1.0, 1.0 ],
					"numinlets" : 1,
					"setminmax" : [ 0.0, 1.0 ],
					"patching_rect" : [ 563.0, 799.0, 224.0, 106.0 ],
					"id" : "obj-93",
					"numoutlets" : 2,
					"size" : 12
				}

			}
, 			{
				"box" : 				{
					"maxclass" : "live.gain~",
					"varname" : "live.gain~",
					"outlettype" : [ "" ],
					"numinlets" : 1,
					"patching_rect" : [ 103.0, 1089.0, 51.0, 172.0 ],
					"id" : "obj-94",
					"numoutlets" : 1,
					"saved_attribute_attributes" : "[another placeholder]",
					"parameter_enable" : 1
				}

			}
, 			{
				"box" : 				{
					"maxclass" : "ezdac~",
					"numinlets" : 2,
					"patching_rect" : [ 103.0, 1309.0, 45.0, 45.0 ],
					"id" : "obj-95",
					"numoutlets" : 0
				}

			}
, 			{
				"box" : 				{
					"maxclass" : "newobj",
					"text" : "sfplay~",
					"outlettype" : [ "signal", "bang" ],
					"fontsize" : 12.0,
					"numinlets" : 2,
					"patching_rect" : [ 52.0, 725.0, 49.0, 20.0 ],
					"id" : "obj-96",
					"fontname" : "Arial",
					"numoutlets" : 2,
					"save" : [ "#N", "sfplay~", "", 1, 120960, 0, "", ";" ]
				}

			}
, 			{
				"box" : 				{
					"maxclass" : "message",
					"text" : "open, loop 1, 1",
					"outlettype" : [ "" ],
					"fontsize" : 12.0,
					"numinlets" : 2,
					"patching_rect" : [ 52.0, 705.0, 90.0, 18.0 ],
					"id" : "obj-97",
					"fontname" : "Arial",
					"numoutlets" : 1
				}

			}
, 			{
				"box" : 				{
					"maxclass" : "newobj",
					"text" : "ol.autotalent~",
					"outlettype" : [ "signal", "float", "float" ],
					"fontsize" : 12.0,
					"numinlets" : 1,
					"patching_rect" : [ 103.0, 939.0, 81.0, 20.0 ],
					"id" : "obj-98",
					"fontname" : "Arial",
					"numoutlets" : 3
				}

			}
, 			{
				"box" : 				{
					"maxclass" : "message",
					"text" : "correction $1",
					"outlettype" : [ "" ],
					"fontsize" : 10.0,
					"numinlets" : 2,
					"patching_rect" : [ 223.0, 899.0, 66.0, 16.0 ],
					"id" : "obj-99",
					"fontname" : "Arial",
					"numoutlets" : 1
				}

			}
, 			{
				"box" : 				{
					"maxclass" : "message",
					"text" : "glide $1",
					"outlettype" : [ "" ],
					"fontsize" : 10.0,
					"numinlets" : 2,
					"patching_rect" : [ 313.0, 899.0, 44.0, 16.0 ],
					"id" : "obj-100",
					"fontname" : "Arial",
					"numoutlets" : 1
				}

			}
, 			{
				"box" : 				{
					"maxclass" : "message",
					"text" : "mix $1",
					"outlettype" : [ "" ],
					"fontsize" : 10.0,
					"numinlets" : 2,
					"patching_rect" : [ 373.0, 899.0, 44.0, 16.0 ],
					"id" : "obj-101",
					"fontname" : "Arial",
					"numoutlets" : 1
				}

			}
, 			{
				"box" : 				{
					"maxclass" : "message",
					"text" : "tune $1",
					"outlettype" : [ "" ],
					"fontsize" : 10.0,
					"numinlets" : 2,
					"patching_rect" : [ 493.0, 899.0, 43.0, 16.0 ],
					"id" : "obj-102",
					"fontname" : "Arial",
					"numoutlets" : 1
				}

			}
, 			{
				"box" : 				{
					"maxclass" : "message",
					"text" : "shift $1",
					"outlettype" : [ "" ],
					"fontsize" : 10.0,
					"numinlets" : 2,
					"patching_rect" : [ 433.0, 899.0, 44.0, 16.0 ],
					"id" : "obj-103",
					"fontname" : "Arial",
					"numoutlets" : 1
				}

			}
, 			{
				"box" : 				{
					"maxclass" : "newobj",
					"text" : "js mul.js",
					"outlettype" : [ "" ],
					"fontsize" : 10.0,
					"presentation_rect" : [ 696.0, 201.0, 52.0, 18.0 ],
					"numinlets" : 1,
					"patching_rect" : [ 856.0, 258.0, 52.0, 18.0 ],
					"id" : "obj-53",
					"fontname" : "Lucida Grande",
					"presentation" : 1,
					"numoutlets" : 1
				}

			}
, 			{
				"box" : 				{
					"maxclass" : "newobj",
					"text" : "print",
					"fontsize" : 10.0,
					"numinlets" : 1,
					"patching_rect" : [ 820.0, 328.0, 34.0, 18.0 ],
					"id" : "obj-46",
					"fontname" : "Lucida Grande",
					"numoutlets" : 0
				}

			}
, 			{
				"box" : 				{
					"maxclass" : "message",
					"text" : "mul 2 3",
					"outlettype" : [ "" ],
					"fontsize" : 10.0,
					"numinlets" : 2,
					"patching_rect" : [ 862.0, 207.0, 48.0, 16.0 ],
					"id" : "obj-40",
					"fontname" : "Lucida Grande",
					"numoutlets" : 1
				}

			}
, 			{
				"box" : 				{
					"maxclass" : "newobj",
					"text" : "loadbang",
					"outlettype" : [ "bang" ],
					"fontsize" : 10.0,
					"presentation_rect" : [ 659.0, 59.0, 56.0, 18.0 ],
					"numinlets" : 1,
					"patching_rect" : [ 812.0, 162.0, 56.0, 18.0 ],
					"id" : "obj-25",
					"fontname" : "Lucida Grande",
					"presentation" : 1,
					"numoutlets" : 1
				}

			}
, 			{
				"box" : 				{
					"maxclass" : "jsui",
					"outlettype" : [ "" ],
					"presentation_rect" : [ 768.0, 245.0, 64.0, 64.0 ],
					"jsarguments" : [  ],
					"numinlets" : 1,
					"patching_rect" : [ 842.0, 562.0, 64.0, 64.0 ],
					"id" : "obj-14",
					"presentation" : 1,
					"numoutlets" : 1
				}

			}
, 			{
				"box" : 				{
					"maxclass" : "newobj",
					"text" : "delay 1000",
					"outlettype" : [ "bang" ],
					"fontsize" : 10.0,
					"numinlets" : 2,
					"patching_rect" : [ 287.0, 254.0, 59.0, 18.0 ],
					"id" : "obj-13",
					"fontname" : "Arial",
					"numoutlets" : 1
				}

			}
, 			{
				"box" : 				{
					"maxclass" : "newobj",
					"text" : "defer",
					"outlettype" : [ "" ],
					"fontsize" : 10.0,
					"numinlets" : 1,
					"patching_rect" : [ 240.0, 250.0, 33.0, 18.0 ],
					"id" : "obj-6",
					"fontname" : "Arial",
					"numoutlets" : 1
				}

			}
, 			{
				"box" : 				{
					"maxclass" : "newobj",
					"text" : "loadbang",
					"outlettype" : [ "bang" ],
					"fontsize" : 10.0,
					"numinlets" : 1,
					"patching_rect" : [ 239.0, 229.0, 52.0, 18.0 ],
					"id" : "obj-62",
					"fontname" : "Arial",
					"numoutlets" : 1
				}

			}
, 			{
				"box" : 				{
					"maxclass" : "comment",
					"text" : "Nonsense-instrument build around the \"fingerpinger\" external by  [ a n y m a | research ] - www.anyma.ch/research",
					"linecount" : 5,
					"presentation_linecount" : 2,
					"fontsize" : 10.0,
					"frgb" : [ 1.0, 1.0, 1.0, 1.0 ],
					"presentation_rect" : [ 217.0, 2.0, 335.0, 30.0 ],
					"numinlets" : 1,
					"patching_rect" : [ 655.0, 72.0, 158.0, 65.0 ],
					"id" : "obj-60",
					"fontname" : "Lucida Grande",
					"presentation" : 1,
					"numoutlets" : 0,
					"textcolor" : [ 1.0, 1.0, 1.0, 1.0 ]
				}

			}
, 			{
				"box" : 				{
					"maxclass" : "comment",
					"text" : "TrackPadSynth",
					"fontsize" : 24.0,
					"frgb" : [ 1.0, 1.0, 1.0, 1.0 ],
					"presentation_rect" : [ 9.0, 0.0, 207.0, 35.0 ],
					"numinlets" : 1,
					"patching_rect" : [ 655.0, 33.0, 381.0, 35.0 ],
					"id" : "obj-59",
					"fontname" : "Lucida Grande Bold",
					"presentation" : 1,
					"numoutlets" : 0,
					"textcolor" : [ 1.0, 1.0, 1.0, 1.0 ]
				}

			}
, 			{
				"box" : 				{
					"maxclass" : "newobj",
					"text" : "bgcolor 90 90 90",
					"fontsize" : 10.0,
					"numinlets" : 4,
					"patching_rect" : [ 435.0, 271.0, 85.0, 18.0 ],
					"id" : "obj-57",
					"fontname" : "Arial",
					"numoutlets" : 0
				}

			}
, 			{
				"box" : 				{
					"maxclass" : "newobj",
					"text" : "loadmess 256",
					"outlettype" : [ "" ],
					"fontsize" : 10.0,
					"numinlets" : 1,
					"patching_rect" : [ 585.0, 18.0, 73.0, 18.0 ],
					"id" : "obj-54",
					"fontname" : "Arial",
					"numoutlets" : 1
				}

			}
, 			{
				"box" : 				{
					"maxclass" : "comment",
					"text" : "Audio output",
					"fontsize" : 10.0,
					"frgb" : [ 1.0, 1.0, 1.0, 1.0 ],
					"presentation_rect" : [ 31.0, 411.0, 75.0, 18.0 ],
					"numinlets" : 1,
					"patching_rect" : [ 33.0, 415.0, 167.0, 18.0 ],
					"id" : "obj-52",
					"fontname" : "Lucida Grande",
					"presentation" : 1,
					"numoutlets" : 0,
					"textcolor" : [ 1.0, 1.0, 1.0, 1.0 ]
				}

			}
, 			{
				"box" : 				{
					"maxclass" : "comment",
					"text" : "Octaves",
					"fontsize" : 10.0,
					"frgb" : [ 1.0, 1.0, 1.0, 1.0 ],
					"presentation_rect" : [ 6.0, 313.0, 49.0, 18.0 ],
					"numinlets" : 1,
					"patching_rect" : [ 14.0, 312.0, 154.0, 18.0 ],
					"id" : "obj-51",
					"fontname" : "Lucida Grande",
					"presentation" : 1,
					"numoutlets" : 0,
					"textcolor" : [ 1.0, 1.0, 1.0, 1.0 ]
				}

			}
, 			{
				"box" : 				{
					"maxclass" : "comment",
					"text" : "Base",
					"fontsize" : 10.0,
					"frgb" : [ 1.0, 1.0, 1.0, 1.0 ],
					"presentation_rect" : [ 14.0, 273.0, 32.0, 18.0 ],
					"numinlets" : 1,
					"patching_rect" : [ 4.0, 294.0, 146.0, 18.0 ],
					"id" : "obj-50",
					"fontname" : "Lucida Grande",
					"presentation" : 1,
					"numoutlets" : 0,
					"textcolor" : [ 1.0, 1.0, 1.0, 1.0 ]
				}

			}
, 			{
				"box" : 				{
					"maxclass" : "comment",
					"text" : "Resonance",
					"fontsize" : 10.0,
					"frgb" : [ 1.0, 1.0, 1.0, 1.0 ],
					"presentation_rect" : [ 4.0, 232.0, 65.0, 18.0 ],
					"numinlets" : 1,
					"patching_rect" : [ 2.0, 235.0, 153.0, 18.0 ],
					"id" : "obj-49",
					"fontname" : "Lucida Grande",
					"presentation" : 1,
					"numoutlets" : 0,
					"textcolor" : [ 1.0, 1.0, 1.0, 1.0 ]
				}

			}
, 			{
				"box" : 				{
					"maxclass" : "comment",
					"text" : "Release",
					"fontsize" : 10.0,
					"frgb" : [ 1.0, 1.0, 1.0, 1.0 ],
					"presentation_rect" : [ 9.0, 163.0, 47.0, 18.0 ],
					"numinlets" : 1,
					"patching_rect" : [ 4.0, 114.0, 150.0, 18.0 ],
					"id" : "obj-48",
					"fontname" : "Lucida Grande",
					"presentation" : 1,
					"numoutlets" : 0,
					"textcolor" : [ 1.0, 1.0, 1.0, 1.0 ]
				}

			}
, 			{
				"box" : 				{
					"maxclass" : "comment",
					"text" : "Attack",
					"fontsize" : 10.0,
					"frgb" : [ 1.0, 1.0, 1.0, 1.0 ],
					"presentation_rect" : [ 16.0, 93.0, 46.0, 18.0 ],
					"numinlets" : 1,
					"patching_rect" : [ 40.0, 59.0, 163.0, 18.0 ],
					"id" : "obj-47",
					"fontname" : "Lucida Grande",
					"presentation" : 1,
					"numoutlets" : 0,
					"textcolor" : [ 1.0, 1.0, 1.0, 1.0 ]
				}

			}
, 			{
				"box" : 				{
					"maxclass" : "newobj",
					"text" : "standalone",
					"fontsize" : 10.0,
					"numinlets" : 1,
					"patching_rect" : [ 61.0, 83.0, 59.0, 18.0 ],
					"id" : "obj-45",
					"fontname" : "Arial",
					"numoutlets" : 0,
					"saved_object_attributes" : 					{
						"usesearchpath" : 0,
						"allwindowsactive" : 0,
						"preffilename" : "Max 5 Preferences",
						"noloadbangdefeating" : 0,
						"searchformissingfiles" : 1,
						"midisupport" : 0,
						"cantclosetoplevelpatchers" : 1,
						"overdrive" : 0,
						"audiosupport" : 1,
						"statusvisible" : 0
					}

				}

			}
, 			{
				"box" : 				{
					"maxclass" : "newobj",
					"text" : "prepend resonance",
					"outlettype" : [ "" ],
					"fontsize" : 10.0,
					"numinlets" : 1,
					"patching_rect" : [ 475.0, 209.0, 97.0, 18.0 ],
					"id" : "obj-44",
					"fontname" : "Arial",
					"numoutlets" : 1
				}

			}
, 			{
				"box" : 				{
					"maxclass" : "newobj",
					"text" : "scale 0 1024 1 16",
					"outlettype" : [ "" ],
					"fontsize" : 10.0,
					"numinlets" : 6,
					"patching_rect" : [ 563.0, 100.0, 89.0, 18.0 ],
					"id" : "obj-43",
					"fontname" : "Arial",
					"numoutlets" : 1
				}

			}
, 			{
				"box" : 				{
					"maxclass" : "dial",
					"outlettype" : [ "float" ],
					"presentation_rect" : [ 8.0, 183.0, 49.0, 49.0 ],
					"numinlets" : 1,
					"patching_rect" : [ 583.0, 44.0, 40.0, 40.0 ],
					"id" : "obj-42",
					"presentation" : 1,
					"numoutlets" : 1,
					"size" : 1024.0
				}

			}
, 			{
				"box" : 				{
					"maxclass" : "newobj",
					"text" : "loadmess 16",
					"outlettype" : [ "" ],
					"fontsize" : 10.0,
					"numinlets" : 1,
					"patching_rect" : [ 485.0, 11.0, 67.0, 18.0 ],
					"id" : "obj-41",
					"fontname" : "Arial",
					"numoutlets" : 1
				}

			}
, 			{
				"box" : 				{
					"maxclass" : "flonum",
					"outlettype" : [ "float", "bang" ],
					"fontsize" : 10.0,
					"numinlets" : 1,
					"patching_rect" : [ 437.0, 122.0, 50.0, 18.0 ],
					"id" : "obj-39",
					"fontname" : "Arial",
					"numoutlets" : 2
				}

			}
, 			{
				"box" : 				{
					"maxclass" : "newobj",
					"text" : "loadmess 16",
					"outlettype" : [ "" ],
					"fontsize" : 10.0,
					"numinlets" : 1,
					"patching_rect" : [ 416.0, 19.0, 67.0, 18.0 ],
					"id" : "obj-37",
					"fontname" : "Arial",
					"numoutlets" : 1
				}

			}
, 			{
				"box" : 				{
					"maxclass" : "newobj",
					"text" : "loadmess 120",
					"outlettype" : [ "" ],
					"fontsize" : 10.0,
					"numinlets" : 1,
					"patching_rect" : [ 72.0, 271.0, 73.0, 18.0 ],
					"id" : "obj-36",
					"fontname" : "Arial",
					"numoutlets" : 1
				}

			}
, 			{
				"box" : 				{
					"maxclass" : "newobj",
					"text" : "scale 0 1024 0 2000",
					"outlettype" : [ "" ],
					"fontsize" : 10.0,
					"numinlets" : 6,
					"patching_rect" : [ 480.0, 122.0, 101.0, 18.0 ],
					"id" : "obj-29",
					"fontname" : "Arial",
					"numoutlets" : 1
				}

			}
, 			{
				"box" : 				{
					"maxclass" : "dial",
					"outlettype" : [ "float" ],
					"presentation_rect" : [ 8.0, 112.0, 49.0, 49.0 ],
					"numinlets" : 1,
					"patching_rect" : [ 502.0, 40.0, 40.0, 40.0 ],
					"id" : "obj-28",
					"presentation" : 1,
					"numoutlets" : 1,
					"size" : 1024.0
				}

			}
, 			{
				"box" : 				{
					"maxclass" : "newobj",
					"text" : "scale 0 1024 0 2000",
					"outlettype" : [ "" ],
					"fontsize" : 10.0,
					"numinlets" : 6,
					"patching_rect" : [ 435.0, 96.0, 101.0, 18.0 ],
					"id" : "obj-27",
					"fontname" : "Arial",
					"numoutlets" : 1
				}

			}
, 			{
				"box" : 				{
					"maxclass" : "dial",
					"outlettype" : [ "float" ],
					"presentation_rect" : [ 8.0, 48.0, 49.0, 49.0 ],
					"numinlets" : 1,
					"patching_rect" : [ 452.0, 41.0, 40.0, 40.0 ],
					"id" : "obj-26",
					"presentation" : 1,
					"numoutlets" : 1,
					"size" : 1024.0
				}

			}
, 			{
				"box" : 				{
					"maxclass" : "newobj",
					"text" : "prepend release",
					"outlettype" : [ "" ],
					"fontsize" : 10.0,
					"numinlets" : 1,
					"patching_rect" : [ 451.0, 180.0, 83.0, 18.0 ],
					"id" : "obj-24",
					"fontname" : "Arial",
					"numoutlets" : 1
				}

			}
, 			{
				"box" : 				{
					"maxclass" : "newobj",
					"text" : "prepend attack",
					"outlettype" : [ "" ],
					"fontsize" : 10.0,
					"numinlets" : 1,
					"patching_rect" : [ 335.0, 192.0, 77.0, 18.0 ],
					"id" : "obj-22",
					"fontname" : "Arial",
					"numoutlets" : 1
				}

			}
, 			{
				"box" : 				{
					"maxclass" : "newobj",
					"text" : "loadmess 4",
					"outlettype" : [ "" ],
					"fontsize" : 10.0,
					"numinlets" : 1,
					"patching_rect" : [ 327.0, 46.0, 62.0, 18.0 ],
					"id" : "obj-21",
					"fontname" : "Arial",
					"numoutlets" : 1
				}

			}
, 			{
				"box" : 				{
					"maxclass" : "newobj",
					"text" : "loadmess 110",
					"outlettype" : [ "" ],
					"fontsize" : 10.0,
					"numinlets" : 1,
					"patching_rect" : [ 201.0, 39.0, 73.0, 18.0 ],
					"id" : "obj-19",
					"fontname" : "Arial",
					"numoutlets" : 1
				}

			}
, 			{
				"box" : 				{
					"maxclass" : "incdec",
					"outlettype" : [ "float" ],
					"presentation_rect" : [ 42.0, 293.0, 20.0, 20.0 ],
					"numinlets" : 1,
					"patching_rect" : [ 389.0, 91.0, 20.0, 20.0 ],
					"id" : "obj-18",
					"presentation" : 1,
					"numoutlets" : 1
				}

			}
, 			{
				"box" : 				{
					"maxclass" : "flonum",
					"triangle" : 0,
					"outlettype" : [ "float", "bang" ],
					"fontsize" : 12.0,
					"presentation_rect" : [ 8.0, 293.0, 34.0, 21.0 ],
					"numinlets" : 1,
					"minimum" : 1.0,
					"patching_rect" : [ 337.0, 93.0, 60.0, 21.0 ],
					"id" : "obj-17",
					"fontname" : "Lucida Grande",
					"presentation" : 1,
					"numoutlets" : 2,
					"maximum" : 20.0
				}

			}
, 			{
				"box" : 				{
					"maxclass" : "newobj",
					"text" : "prepend octaves",
					"outlettype" : [ "" ],
					"fontsize" : 10.0,
					"numinlets" : 1,
					"patching_rect" : [ 335.0, 119.0, 84.0, 18.0 ],
					"id" : "obj-16",
					"fontname" : "Arial",
					"numoutlets" : 1
				}

			}
, 			{
				"box" : 				{
					"maxclass" : "newobj",
					"text" : "prepend base",
					"outlettype" : [ "" ],
					"fontsize" : 10.0,
					"numinlets" : 1,
					"patching_rect" : [ 241.0, 119.0, 72.0, 18.0 ],
					"id" : "obj-15",
					"fontname" : "Arial",
					"numoutlets" : 1
				}

			}
, 			{
				"box" : 				{
					"maxclass" : "flonum",
					"triangle" : 0,
					"outlettype" : [ "float", "bang" ],
					"fontsize" : 12.0,
					"presentation_rect" : [ 8.0, 255.0, 50.0, 21.0 ],
					"numinlets" : 1,
					"minimum" : 50.0,
					"patching_rect" : [ 244.0, 94.0, 62.0, 21.0 ],
					"id" : "obj-11",
					"fontname" : "Lucida Grande",
					"presentation" : 1,
					"numoutlets" : 2,
					"maximum" : 800.0
				}

			}
, 			{
				"box" : 				{
					"maxclass" : "newobj",
					"text" : "p draw",
					"outlettype" : [ "" ],
					"fontsize" : 12.0,
					"numinlets" : 3,
					"patching_rect" : [ 157.0, 274.0, 59.5, 20.0 ],
					"id" : "obj-10",
					"fontname" : "Arial",
					"numoutlets" : 1,
					"patcher" : 					{
						"fileversion" : 1,
						"rect" : [ 118.0, 44.0, 1176.0, 707.0 ],
						"bglocked" : 0,
						"defrect" : [ 118.0, 44.0, 1176.0, 707.0 ],
						"openrect" : [ 0.0, 0.0, 0.0, 0.0 ],
						"openinpresentation" : 0,
						"default_fontsize" : 12.0,
						"default_fontface" : 0,
						"default_fontname" : "Arial",
						"gridonopen" : 0,
						"gridsize" : [ 15.0, 15.0 ],
						"gridsnaponopen" : 0,
						"toolbarvisible" : 1,
						"boxanimatetime" : 200,
						"imprint" : 0,
						"enablehscroll" : 1,
						"enablevscroll" : 1,
						"boxes" : [ 							{
								"box" : 								{
									"maxclass" : "newobj",
									"text" : "zl reg",
									"outlettype" : [ "", "" ],
									"fontsize" : 12.0,
									"numinlets" : 2,
									"patching_rect" : [ 762.0, 538.0, 40.0, 20.0 ],
									"id" : "obj-28",
									"fontname" : "Arial",
									"numoutlets" : 2
								}

							}
, 							{
								"box" : 								{
									"maxclass" : "newobj",
									"text" : "pack 0 0",
									"outlettype" : [ "" ],
									"fontsize" : 12.0,
									"numinlets" : 2,
									"patching_rect" : [ 749.0, 492.0, 56.0, 20.0 ],
									"id" : "obj-27",
									"fontname" : "Arial",
									"numoutlets" : 1
								}

							}
, 							{
								"box" : 								{
									"maxclass" : "newobj",
									"text" : "t b b b",
									"outlettype" : [ "bang", "bang", "bang" ],
									"fontsize" : 12.0,
									"numinlets" : 1,
									"patching_rect" : [ 624.0, 502.0, 46.0, 20.0 ],
									"id" : "obj-26",
									"fontname" : "Arial",
									"numoutlets" : 3
								}

							}
, 							{
								"box" : 								{
									"maxclass" : "newobj",
									"text" : "pack moveto 0 0",
									"outlettype" : [ "" ],
									"fontsize" : 12.0,
									"numinlets" : 3,
									"patching_rect" : [ 714.0, 590.0, 99.0, 20.0 ],
									"id" : "obj-25",
									"fontname" : "Arial",
									"numoutlets" : 1
								}

							}
, 							{
								"box" : 								{
									"maxclass" : "newobj",
									"text" : "loadbang",
									"outlettype" : [ "bang" ],
									"fontsize" : 12.0,
									"numinlets" : 1,
									"patching_rect" : [ 1040.0, 436.0, 60.0, 20.0 ],
									"id" : "obj-23",
									"fontname" : "Arial",
									"numoutlets" : 1
								}

							}
, 							{
								"box" : 								{
									"maxclass" : "message",
									"text" : "frgb 100 10 255, pensize 1 1",
									"outlettype" : [ "" ],
									"fontsize" : 12.0,
									"numinlets" : 2,
									"patching_rect" : [ 816.0, 591.0, 163.0, 18.0 ],
									"id" : "obj-22",
									"fontname" : "Arial",
									"numoutlets" : 1
								}

							}
, 							{
								"box" : 								{
									"maxclass" : "newobj",
									"text" : "pack lineto 0 0",
									"outlettype" : [ "" ],
									"fontsize" : 12.0,
									"numinlets" : 3,
									"patching_rect" : [ 625.0, 590.0, 88.0, 20.0 ],
									"id" : "obj-7",
									"fontname" : "Arial",
									"numoutlets" : 1
								}

							}
, 							{
								"box" : 								{
									"maxclass" : "message",
									"text" : "brgb 20 20 20, clear",
									"outlettype" : [ "" ],
									"fontsize" : 12.0,
									"numinlets" : 2,
									"patching_rect" : [ 1040.0, 459.0, 117.0, 18.0 ],
									"id" : "obj-3",
									"fontname" : "Arial",
									"numoutlets" : 1
								}

							}
, 							{
								"box" : 								{
									"maxclass" : "newobj",
									"text" : "* -1.",
									"outlettype" : [ "float" ],
									"fontsize" : 12.0,
									"numinlets" : 2,
									"patching_rect" : [ 199.0, 335.0, 33.0, 20.0 ],
									"id" : "obj-4",
									"fontname" : "Arial",
									"numoutlets" : 1
								}

							}
, 							{
								"box" : 								{
									"maxclass" : "newobj",
									"text" : "* -20.",
									"outlettype" : [ "float" ],
									"fontsize" : 12.0,
									"numinlets" : 2,
									"patching_rect" : [ 164.0, 375.0, 39.0, 20.0 ],
									"id" : "obj-46",
									"fontname" : "Arial",
									"numoutlets" : 1
								}

							}
, 							{
								"box" : 								{
									"maxclass" : "newobj",
									"text" : "* 20.",
									"outlettype" : [ "float" ],
									"fontsize" : 12.0,
									"numinlets" : 2,
									"patching_rect" : [ 125.0, 330.0, 35.0, 20.0 ],
									"id" : "obj-45",
									"fontname" : "Arial",
									"numoutlets" : 1
								}

							}
, 							{
								"box" : 								{
									"maxclass" : "newobj",
									"text" : "pack line 0 0",
									"outlettype" : [ "" ],
									"fontsize" : 12.0,
									"numinlets" : 3,
									"patching_rect" : [ 104.0, 404.0, 78.0, 20.0 ],
									"id" : "obj-42",
									"fontname" : "Arial",
									"numoutlets" : 1
								}

							}
, 							{
								"box" : 								{
									"maxclass" : "newobj",
									"text" : "sin",
									"outlettype" : [ "float" ],
									"fontsize" : 12.0,
									"numinlets" : 1,
									"patching_rect" : [ 178.0, 276.0, 26.0, 20.0 ],
									"id" : "obj-41",
									"fontname" : "Arial",
									"numoutlets" : 1
								}

							}
, 							{
								"box" : 								{
									"maxclass" : "newobj",
									"text" : "cos",
									"outlettype" : [ "float" ],
									"fontsize" : 12.0,
									"numinlets" : 1,
									"patching_rect" : [ 128.0, 280.0, 29.0, 20.0 ],
									"id" : "obj-40",
									"fontname" : "Arial",
									"numoutlets" : 1
								}

							}
, 							{
								"box" : 								{
									"maxclass" : "newobj",
									"text" : "t b b b",
									"outlettype" : [ "bang", "bang", "bang" ],
									"fontsize" : 12.0,
									"numinlets" : 1,
									"patching_rect" : [ 225.0, 269.0, 46.0, 20.0 ],
									"id" : "obj-39",
									"fontname" : "Arial",
									"numoutlets" : 3
								}

							}
, 							{
								"box" : 								{
									"maxclass" : "message",
									"text" : "frgb 0 0 0, pensize 3 3",
									"outlettype" : [ "" ],
									"fontsize" : 12.0,
									"numinlets" : 2,
									"patching_rect" : [ 341.0, 337.0, 129.0, 18.0 ],
									"id" : "obj-38",
									"fontname" : "Arial",
									"numoutlets" : 1
								}

							}
, 							{
								"box" : 								{
									"maxclass" : "newobj",
									"text" : "pack moveto 0 0",
									"outlettype" : [ "" ],
									"fontsize" : 12.0,
									"numinlets" : 3,
									"patching_rect" : [ 231.0, 342.0, 99.0, 20.0 ],
									"id" : "obj-36",
									"fontname" : "Arial",
									"numoutlets" : 1
								}

							}
, 							{
								"box" : 								{
									"maxclass" : "newobj",
									"text" : "!- 1.",
									"outlettype" : [ "float" ],
									"fontsize" : 12.0,
									"numinlets" : 2,
									"patching_rect" : [ 577.0, 161.0, 32.5, 20.0 ],
									"id" : "obj-35",
									"fontname" : "Arial",
									"numoutlets" : 1
								}

							}
, 							{
								"box" : 								{
									"maxclass" : "newobj",
									"text" : "gate",
									"outlettype" : [ "" ],
									"fontsize" : 12.0,
									"numinlets" : 2,
									"patching_rect" : [ 230.0, 100.0, 34.0, 20.0 ],
									"id" : "obj-30",
									"fontname" : "Arial",
									"numoutlets" : 1
								}

							}
, 							{
								"box" : 								{
									"maxclass" : "newobj",
									"text" : "scale 0. 2. 2 30",
									"outlettype" : [ "" ],
									"fontsize" : 12.0,
									"numinlets" : 6,
									"patching_rect" : [ 863.0, 165.0, 92.0, 20.0 ],
									"id" : "obj-29",
									"fontname" : "Arial",
									"numoutlets" : 1
								}

							}
, 							{
								"box" : 								{
									"maxclass" : "newobj",
									"text" : "t b b",
									"outlettype" : [ "bang", "bang" ],
									"fontsize" : 12.0,
									"numinlets" : 1,
									"patching_rect" : [ 229.0, 164.0, 34.0, 20.0 ],
									"id" : "obj-21",
									"fontname" : "Arial",
									"numoutlets" : 2
								}

							}
, 							{
								"box" : 								{
									"maxclass" : "newobj",
									"text" : "pack paintoval 0 0 0 0 0",
									"outlettype" : [ "" ],
									"fontsize" : 12.0,
									"numinlets" : 6,
									"patching_rect" : [ 491.0, 391.0, 137.0, 20.0 ],
									"id" : "obj-20",
									"fontname" : "Arial",
									"numoutlets" : 1
								}

							}
, 							{
								"box" : 								{
									"maxclass" : "newobj",
									"text" : "- 0.",
									"outlettype" : [ "float" ],
									"fontsize" : 12.0,
									"numinlets" : 2,
									"patching_rect" : [ 548.0, 344.0, 32.5, 20.0 ],
									"id" : "obj-16",
									"fontname" : "Arial",
									"numoutlets" : 1
								}

							}
, 							{
								"box" : 								{
									"maxclass" : "newobj",
									"text" : "- 0.",
									"outlettype" : [ "float" ],
									"fontsize" : 12.0,
									"numinlets" : 2,
									"patching_rect" : [ 517.0, 346.0, 32.5, 20.0 ],
									"id" : "obj-15",
									"fontname" : "Arial",
									"numoutlets" : 1
								}

							}
, 							{
								"box" : 								{
									"maxclass" : "newobj",
									"text" : "+ 0.",
									"outlettype" : [ "float" ],
									"fontsize" : 12.0,
									"numinlets" : 2,
									"patching_rect" : [ 590.0, 345.0, 32.5, 20.0 ],
									"id" : "obj-14",
									"fontname" : "Arial",
									"numoutlets" : 1
								}

							}
, 							{
								"box" : 								{
									"maxclass" : "newobj",
									"text" : "+ 0.",
									"outlettype" : [ "float" ],
									"fontsize" : 12.0,
									"numinlets" : 2,
									"patching_rect" : [ 634.0, 345.0, 32.5, 20.0 ],
									"id" : "obj-13",
									"fontname" : "Arial",
									"numoutlets" : 1
								}

							}
, 							{
								"box" : 								{
									"maxclass" : "newobj",
									"text" : "* 360.",
									"outlettype" : [ "float" ],
									"fontsize" : 12.0,
									"numinlets" : 2,
									"patching_rect" : [ 577.0, 186.0, 42.0, 20.0 ],
									"id" : "obj-12",
									"fontname" : "Arial",
									"numoutlets" : 1
								}

							}
, 							{
								"box" : 								{
									"maxclass" : "newobj",
									"text" : "* 480.",
									"outlettype" : [ "float" ],
									"fontsize" : 12.0,
									"numinlets" : 2,
									"patching_rect" : [ 518.0, 187.0, 42.0, 20.0 ],
									"id" : "obj-11",
									"fontname" : "Arial",
									"numoutlets" : 1
								}

							}
, 							{
								"box" : 								{
									"maxclass" : "message",
									"text" : "clear",
									"outlettype" : [ "" ],
									"fontsize" : 12.0,
									"numinlets" : 2,
									"patching_rect" : [ 992.0, 264.0, 37.0, 18.0 ],
									"id" : "obj-8",
									"fontname" : "Arial",
									"numoutlets" : 1
								}

							}
, 							{
								"box" : 								{
									"maxclass" : "newobj",
									"text" : "unpack 0. 0. 0. 0. 0. 0. 0. 0. 0. 0. 0. 0. 0.",
									"outlettype" : [ "float", "float", "float", "float", "float", "float", "float", "float", "float", "float", "float", "float", "float" ],
									"fontsize" : 12.0,
									"numinlets" : 1,
									"patching_rect" : [ 231.0, 128.0, 708.0, 20.0 ],
									"id" : "obj-6",
									"fontname" : "Arial",
									"numoutlets" : 13
								}

							}
, 							{
								"box" : 								{
									"maxclass" : "inlet",
									"outlettype" : [ "list" ],
									"numinlets" : 0,
									"patching_rect" : [ 998.0, 67.0, 25.0, 25.0 ],
									"id" : "obj-5",
									"numoutlets" : 1,
									"comment" : ""
								}

							}
, 							{
								"box" : 								{
									"maxclass" : "inlet",
									"outlettype" : [ "int" ],
									"numinlets" : 0,
									"patching_rect" : [ 82.0, 49.0, 25.0, 25.0 ],
									"id" : "obj-9",
									"numoutlets" : 1,
									"comment" : ""
								}

							}
, 							{
								"box" : 								{
									"maxclass" : "inlet",
									"outlettype" : [ "list" ],
									"numinlets" : 0,
									"patching_rect" : [ 266.0, 40.0, 25.0, 25.0 ],
									"id" : "obj-10",
									"numoutlets" : 1,
									"comment" : ""
								}

							}
, 							{
								"box" : 								{
									"maxclass" : "outlet",
									"numinlets" : 1,
									"patching_rect" : [ 231.0, 639.5, 25.0, 25.0 ],
									"id" : "obj-18",
									"numoutlets" : 0,
									"comment" : ""
								}

							}
 ],
						"lines" : [ 							{
								"patchline" : 								{
									"source" : [ "obj-11", 0 ],
									"destination" : [ "obj-26", 0 ],
									"hidden" : 0,
									"midpoints" : [ 527.5, 330.0, 630.0, 330.0, 630.0, 378.0, 639.0, 378.0, 639.0, 489.0, 633.5, 489.0 ]
								}

							}
, 							{
								"patchline" : 								{
									"source" : [ "obj-28", 0 ],
									"destination" : [ "obj-25", 1 ],
									"hidden" : 0,
									"midpoints" : [ 771.5, 576.0, 763.5, 576.0 ]
								}

							}
, 							{
								"patchline" : 								{
									"source" : [ "obj-26", 0 ],
									"destination" : [ "obj-28", 0 ],
									"hidden" : 0,
									"midpoints" : [  ]
								}

							}
, 							{
								"patchline" : 								{
									"source" : [ "obj-27", 0 ],
									"destination" : [ "obj-28", 1 ],
									"hidden" : 0,
									"midpoints" : [  ]
								}

							}
, 							{
								"patchline" : 								{
									"source" : [ "obj-12", 0 ],
									"destination" : [ "obj-27", 1 ],
									"hidden" : 0,
									"midpoints" : [ 586.5, 330.0, 795.5, 330.0 ]
								}

							}
, 							{
								"patchline" : 								{
									"source" : [ "obj-11", 0 ],
									"destination" : [ "obj-27", 0 ],
									"hidden" : 0,
									"midpoints" : [ 527.5, 330.0, 758.5, 330.0 ]
								}

							}
, 							{
								"patchline" : 								{
									"source" : [ "obj-26", 0 ],
									"destination" : [ "obj-7", 0 ],
									"hidden" : 0,
									"midpoints" : [ 633.5, 522.0, 634.5, 522.0 ]
								}

							}
, 							{
								"patchline" : 								{
									"source" : [ "obj-26", 1 ],
									"destination" : [ "obj-25", 0 ],
									"hidden" : 0,
									"midpoints" : [ 647.0, 576.0, 723.5, 576.0 ]
								}

							}
, 							{
								"patchline" : 								{
									"source" : [ "obj-26", 2 ],
									"destination" : [ "obj-22", 0 ],
									"hidden" : 0,
									"midpoints" : [ 660.5, 576.0, 825.5, 576.0 ]
								}

							}
, 							{
								"patchline" : 								{
									"source" : [ "obj-11", 0 ],
									"destination" : [ "obj-7", 1 ],
									"hidden" : 0,
									"midpoints" : [ 527.5, 330.0, 681.0, 330.0, 681.0, 576.0, 669.0, 576.0 ]
								}

							}
, 							{
								"patchline" : 								{
									"source" : [ "obj-12", 0 ],
									"destination" : [ "obj-7", 2 ],
									"hidden" : 0,
									"midpoints" : [ 586.5, 330.0, 703.5, 330.0 ]
								}

							}
, 							{
								"patchline" : 								{
									"source" : [ "obj-25", 0 ],
									"destination" : [ "obj-18", 0 ],
									"hidden" : 0,
									"midpoints" : [ 723.5, 624.0, 240.5, 624.0 ]
								}

							}
, 							{
								"patchline" : 								{
									"source" : [ "obj-23", 0 ],
									"destination" : [ "obj-3", 0 ],
									"hidden" : 0,
									"midpoints" : [  ]
								}

							}
, 							{
								"patchline" : 								{
									"source" : [ "obj-22", 0 ],
									"destination" : [ "obj-18", 0 ],
									"hidden" : 0,
									"midpoints" : [ 825.5, 624.0, 240.5, 624.0 ]
								}

							}
, 							{
								"patchline" : 								{
									"source" : [ "obj-7", 0 ],
									"destination" : [ "obj-18", 0 ],
									"hidden" : 0,
									"midpoints" : [ 634.5, 624.0, 240.5, 624.0 ]
								}

							}
, 							{
								"patchline" : 								{
									"source" : [ "obj-12", 0 ],
									"destination" : [ "obj-13", 0 ],
									"hidden" : 0,
									"midpoints" : [ 586.5, 330.0, 643.5, 330.0 ]
								}

							}
, 							{
								"patchline" : 								{
									"source" : [ "obj-12", 0 ],
									"destination" : [ "obj-16", 0 ],
									"hidden" : 0,
									"midpoints" : [ 586.5, 330.0, 557.5, 330.0 ]
								}

							}
, 							{
								"patchline" : 								{
									"source" : [ "obj-35", 0 ],
									"destination" : [ "obj-12", 0 ],
									"hidden" : 0,
									"midpoints" : [  ]
								}

							}
, 							{
								"patchline" : 								{
									"source" : [ "obj-12", 0 ],
									"destination" : [ "obj-36", 2 ],
									"hidden" : 0,
									"midpoints" : [ 586.5, 324.0, 320.5, 324.0 ]
								}

							}
, 							{
								"patchline" : 								{
									"source" : [ "obj-11", 0 ],
									"destination" : [ "obj-14", 0 ],
									"hidden" : 0,
									"midpoints" : [ 527.5, 330.0, 599.5, 330.0 ]
								}

							}
, 							{
								"patchline" : 								{
									"source" : [ "obj-11", 0 ],
									"destination" : [ "obj-15", 0 ],
									"hidden" : 0,
									"midpoints" : [ 527.5, 207.0, 526.5, 207.0 ]
								}

							}
, 							{
								"patchline" : 								{
									"source" : [ "obj-6", 5 ],
									"destination" : [ "obj-11", 0 ],
									"hidden" : 0,
									"midpoints" : [  ]
								}

							}
, 							{
								"patchline" : 								{
									"source" : [ "obj-11", 0 ],
									"destination" : [ "obj-36", 1 ],
									"hidden" : 0,
									"midpoints" : [ 527.5, 324.0, 280.5, 324.0 ]
								}

							}
, 							{
								"patchline" : 								{
									"source" : [ "obj-3", 0 ],
									"destination" : [ "obj-18", 0 ],
									"hidden" : 0,
									"midpoints" : [ 1049.5, 525.0, 681.0, 525.0, 681.0, 570.0, 240.5, 570.0 ]
								}

							}
, 							{
								"patchline" : 								{
									"source" : [ "obj-39", 1 ],
									"destination" : [ "obj-36", 0 ],
									"hidden" : 0,
									"midpoints" : [  ]
								}

							}
, 							{
								"patchline" : 								{
									"source" : [ "obj-39", 0 ],
									"destination" : [ "obj-42", 0 ],
									"hidden" : 0,
									"midpoints" : [ 234.5, 315.0, 113.5, 315.0 ]
								}

							}
, 							{
								"patchline" : 								{
									"source" : [ "obj-39", 2 ],
									"destination" : [ "obj-38", 0 ],
									"hidden" : 0,
									"midpoints" : [  ]
								}

							}
, 							{
								"patchline" : 								{
									"source" : [ "obj-21", 1 ],
									"destination" : [ "obj-20", 0 ],
									"hidden" : 0,
									"midpoints" : [ 253.5, 255.0, 500.5, 255.0 ]
								}

							}
, 							{
								"patchline" : 								{
									"source" : [ "obj-6", 0 ],
									"destination" : [ "obj-21", 0 ],
									"hidden" : 0,
									"midpoints" : [  ]
								}

							}
, 							{
								"patchline" : 								{
									"source" : [ "obj-6", 6 ],
									"destination" : [ "obj-35", 0 ],
									"hidden" : 0,
									"midpoints" : [  ]
								}

							}
, 							{
								"patchline" : 								{
									"source" : [ "obj-6", 11 ],
									"destination" : [ "obj-29", 0 ],
									"hidden" : 0,
									"midpoints" : [  ]
								}

							}
, 							{
								"patchline" : 								{
									"source" : [ "obj-29", 0 ],
									"destination" : [ "obj-13", 1 ],
									"hidden" : 0,
									"midpoints" : [ 872.5, 330.0, 657.0, 330.0 ]
								}

							}
, 							{
								"patchline" : 								{
									"source" : [ "obj-29", 0 ],
									"destination" : [ "obj-14", 1 ],
									"hidden" : 0,
									"midpoints" : [ 872.5, 330.0, 613.0, 330.0 ]
								}

							}
, 							{
								"patchline" : 								{
									"source" : [ "obj-29", 0 ],
									"destination" : [ "obj-16", 1 ],
									"hidden" : 0,
									"midpoints" : [ 872.5, 330.0, 571.0, 330.0 ]
								}

							}
, 							{
								"patchline" : 								{
									"source" : [ "obj-29", 0 ],
									"destination" : [ "obj-15", 1 ],
									"hidden" : 0,
									"midpoints" : [ 872.5, 330.0, 540.0, 330.0 ]
								}

							}
, 							{
								"patchline" : 								{
									"source" : [ "obj-30", 0 ],
									"destination" : [ "obj-6", 0 ],
									"hidden" : 0,
									"midpoints" : [  ]
								}

							}
, 							{
								"patchline" : 								{
									"source" : [ "obj-6", 9 ],
									"destination" : [ "obj-20", 5 ],
									"hidden" : 0,
									"midpoints" : [ 757.25, 378.0, 618.5, 378.0 ]
								}

							}
, 							{
								"patchline" : 								{
									"source" : [ "obj-13", 0 ],
									"destination" : [ "obj-20", 4 ],
									"hidden" : 0,
									"midpoints" : [ 643.5, 378.0, 594.900024, 378.0 ]
								}

							}
, 							{
								"patchline" : 								{
									"source" : [ "obj-14", 0 ],
									"destination" : [ "obj-20", 3 ],
									"hidden" : 0,
									"midpoints" : [ 599.5, 378.0, 571.299988, 378.0 ]
								}

							}
, 							{
								"patchline" : 								{
									"source" : [ "obj-16", 0 ],
									"destination" : [ "obj-20", 2 ],
									"hidden" : 0,
									"midpoints" : [ 557.5, 378.0, 547.700012, 378.0 ]
								}

							}
, 							{
								"patchline" : 								{
									"source" : [ "obj-15", 0 ],
									"destination" : [ "obj-20", 1 ],
									"hidden" : 0,
									"midpoints" : [ 526.5, 387.0, 524.099976, 387.0 ]
								}

							}
, 							{
								"patchline" : 								{
									"source" : [ "obj-6", 2 ],
									"destination" : [ "obj-41", 0 ],
									"hidden" : 0,
									"midpoints" : [ 355.333344, 249.0, 187.5, 249.0 ]
								}

							}
, 							{
								"patchline" : 								{
									"source" : [ "obj-6", 2 ],
									"destination" : [ "obj-40", 0 ],
									"hidden" : 0,
									"midpoints" : [ 355.333344, 249.0, 137.5, 249.0 ]
								}

							}
, 							{
								"patchline" : 								{
									"source" : [ "obj-46", 0 ],
									"destination" : [ "obj-42", 2 ],
									"hidden" : 0,
									"midpoints" : [  ]
								}

							}
, 							{
								"patchline" : 								{
									"source" : [ "obj-41", 0 ],
									"destination" : [ "obj-46", 0 ],
									"hidden" : 0,
									"midpoints" : [  ]
								}

							}
, 							{
								"patchline" : 								{
									"source" : [ "obj-40", 0 ],
									"destination" : [ "obj-45", 0 ],
									"hidden" : 0,
									"midpoints" : [  ]
								}

							}
, 							{
								"patchline" : 								{
									"source" : [ "obj-45", 0 ],
									"destination" : [ "obj-42", 1 ],
									"hidden" : 0,
									"midpoints" : [  ]
								}

							}
, 							{
								"patchline" : 								{
									"source" : [ "obj-29", 0 ],
									"destination" : [ "obj-45", 1 ],
									"hidden" : 0,
									"midpoints" : [ 872.5, 306.0, 150.5, 306.0 ]
								}

							}
, 							{
								"patchline" : 								{
									"source" : [ "obj-29", 0 ],
									"destination" : [ "obj-4", 0 ],
									"hidden" : 0,
									"midpoints" : [ 872.5, 246.0, 208.5, 246.0 ]
								}

							}
, 							{
								"patchline" : 								{
									"source" : [ "obj-4", 0 ],
									"destination" : [ "obj-46", 1 ],
									"hidden" : 0,
									"midpoints" : [  ]
								}

							}
, 							{
								"patchline" : 								{
									"source" : [ "obj-5", 0 ],
									"destination" : [ "obj-8", 0 ],
									"hidden" : 0,
									"midpoints" : [  ]
								}

							}
, 							{
								"patchline" : 								{
									"source" : [ "obj-9", 0 ],
									"destination" : [ "obj-30", 0 ],
									"hidden" : 0,
									"midpoints" : [  ]
								}

							}
, 							{
								"patchline" : 								{
									"source" : [ "obj-10", 0 ],
									"destination" : [ "obj-30", 1 ],
									"hidden" : 0,
									"midpoints" : [  ]
								}

							}
, 							{
								"patchline" : 								{
									"source" : [ "obj-42", 0 ],
									"destination" : [ "obj-18", 0 ],
									"hidden" : 0,
									"midpoints" : [ 113.5, 477.0, 240.5, 477.0 ]
								}

							}
, 							{
								"patchline" : 								{
									"source" : [ "obj-8", 0 ],
									"destination" : [ "obj-18", 0 ],
									"hidden" : 0,
									"midpoints" : [ 1001.5, 480.0, 240.5, 480.0 ]
								}

							}
, 							{
								"patchline" : 								{
									"source" : [ "obj-36", 0 ],
									"destination" : [ "obj-18", 0 ],
									"hidden" : 0,
									"midpoints" : [ 240.5, 477.0, 240.5, 477.0 ]
								}

							}
, 							{
								"patchline" : 								{
									"source" : [ "obj-20", 0 ],
									"destination" : [ "obj-18", 0 ],
									"hidden" : 0,
									"midpoints" : [ 500.5, 477.0, 240.5, 477.0 ]
								}

							}
, 							{
								"patchline" : 								{
									"source" : [ "obj-38", 0 ],
									"destination" : [ "obj-18", 0 ],
									"hidden" : 0,
									"midpoints" : [ 350.5, 477.0, 240.5, 477.0 ]
								}

							}
, 							{
								"patchline" : 								{
									"source" : [ "obj-21", 0 ],
									"destination" : [ "obj-39", 0 ],
									"hidden" : 0,
									"midpoints" : [  ]
								}

							}
 ]
					}
,
					"saved_object_attributes" : 					{
						"globalpatchername" : "",
						"default_fontsize" : 12.0,
						"fontface" : 0,
						"fontsize" : 12.0,
						"default_fontface" : 0,
						"fontname" : "Arial",
						"default_fontname" : "Arial"
					}

				}

			}
, 			{
				"box" : 				{
					"maxclass" : "lcd",
					"outlettype" : [ "list", "list", "int", "" ],
					"presentation_rect" : [ 63.0, 48.0, 480.0, 360.0 ],
					"numinlets" : 1,
					"patching_rect" : [ 257.0, 308.0, 480.0, 360.0 ],
					"id" : "obj-12",
					"presentation" : 1,
					"numoutlets" : 4
				}

			}
, 			{
				"box" : 				{
					"maxclass" : "message",
					"text" : "base 110, octaves 4",
					"outlettype" : [ "" ],
					"fontsize" : 10.0,
					"numinlets" : 2,
					"patching_rect" : [ 186.0, 159.0, 100.0, 16.0 ],
					"id" : "obj-5",
					"fontname" : "Arial",
					"numoutlets" : 1
				}

			}
, 			{
				"box" : 				{
					"maxclass" : "newobj",
					"text" : "loadbang",
					"outlettype" : [ "bang" ],
					"fontsize" : 10.0,
					"numinlets" : 1,
					"patching_rect" : [ 109.0, 438.0, 52.0, 18.0 ],
					"id" : "obj-35",
					"fontname" : "Arial",
					"numoutlets" : 1
				}

			}
, 			{
				"box" : 				{
					"maxclass" : "umenu",
					"outlettype" : [ "int", "", "" ],
					"fontsize" : 10.0,
					"items" : [ "Off", ",", 1, "output", ",", 2, "output" ],
					"presentation_rect" : [ 442.542877, 411.0, 100.0, 18.0 ],
					"types" : [  ],
					"numinlets" : 1,
					"patching_rect" : [ 26.542862, 600.363037, 100.0, 18.0 ],
					"id" : "obj-30",
					"fontname" : "Lucida Grande",
					"presentation" : 1,
					"numoutlets" : 3
				}

			}
, 			{
				"box" : 				{
					"maxclass" : "button",
					"outlettype" : [ "bang" ],
					"numinlets" : 1,
					"patching_rect" : [ 26.542862, 550.716614, 20.0, 20.0 ],
					"id" : "obj-31",
					"numoutlets" : 1
				}

			}
, 			{
				"box" : 				{
					"maxclass" : "newobj",
					"text" : "adstatus output 1",
					"outlettype" : [ "", "int" ],
					"fontsize" : 11.595187,
					"numinlets" : 2,
					"patching_rect" : [ 26.542862, 576.117126, 99.0, 20.0 ],
					"id" : "obj-20",
					"fontname" : "Arial",
					"numoutlets" : 2
				}

			}
, 			{
				"box" : 				{
					"maxclass" : "button",
					"outlettype" : [ "bang" ],
					"numinlets" : 1,
					"patching_rect" : [ 63.262329, 486.0, 20.0, 20.0 ],
					"id" : "obj-32",
					"numoutlets" : 1
				}

			}
, 			{
				"box" : 				{
					"maxclass" : "umenu",
					"outlettype" : [ "int", "", "" ],
					"fontsize" : 10.0,
					"items" : [ "None", ",", "CoreAudio", "Built-in Output", ",", "NonRealTime", ",", "ad_rewire" ],
					"presentation_rect" : [ 109.262329, 411.0, 203.0, 18.0 ],
					"types" : [  ],
					"numinlets" : 1,
					"patching_rect" : [ 63.262329, 536.800964, 135.0, 18.0 ],
					"id" : "obj-33",
					"fontname" : "Lucida Grande",
					"presentation" : 1,
					"numoutlets" : 3
				}

			}
, 			{
				"box" : 				{
					"maxclass" : "newobj",
					"text" : "adstatus driver",
					"outlettype" : [ "", "int" ],
					"fontsize" : 11.595187,
					"numinlets" : 2,
					"patching_rect" : [ 63.262329, 511.400452, 87.0, 20.0 ],
					"id" : "obj-34",
					"fontname" : "Arial",
					"numoutlets" : 2
				}

			}
, 			{
				"box" : 				{
					"maxclass" : "newobj",
					"text" : "dac~",
					"fontsize" : 10.0,
					"numinlets" : 2,
					"patching_rect" : [ 27.0, 401.0, 32.5, 18.0 ],
					"id" : "obj-7",
					"fontname" : "Arial",
					"numoutlets" : 0
				}

			}
, 			{
				"box" : 				{
					"maxclass" : "newobj",
					"text" : "loadbang",
					"outlettype" : [ "bang" ],
					"fontsize" : 10.0,
					"numinlets" : 1,
					"patching_rect" : [ 125.0, 135.0, 52.0, 18.0 ],
					"id" : "obj-4",
					"fontname" : "Arial",
					"numoutlets" : 1
				}

			}
, 			{
				"box" : 				{
					"maxclass" : "message",
					"text" : "target 0",
					"outlettype" : [ "" ],
					"fontsize" : 10.0,
					"numinlets" : 2,
					"patching_rect" : [ 125.0, 159.0, 44.0, 16.0 ],
					"id" : "obj-8",
					"fontname" : "Arial",
					"numoutlets" : 1
				}

			}
, 			{
				"box" : 				{
					"maxclass" : "newobj",
					"text" : "poly~ TouchVoice_voice 10",
					"outlettype" : [ "signal" ],
					"fontsize" : 10.0,
					"numinlets" : 4,
					"patching_rect" : [ 62.0, 241.0, 133.0, 18.0 ],
					"id" : "obj-2",
					"fontname" : "Arial",
					"numoutlets" : 1
				}

			}
, 			{
				"box" : 				{
					"maxclass" : "gain~",
					"outlettype" : [ "signal", "int" ],
					"presentation_rect" : [ 8.0, 335.0, 52.0, 71.0 ],
					"numinlets" : 2,
					"patching_rect" : [ 27.0, 313.0, 52.0, 71.0 ],
					"id" : "obj-9",
					"presentation" : 1,
					"numoutlets" : 2
				}

			}
, 			{
				"box" : 				{
					"maxclass" : "toggle",
					"outlettype" : [ "int" ],
					"presentation_rect" : [ 8.0, 411.0, 20.0, 20.0 ],
					"numinlets" : 1,
					"patching_rect" : [ 26.0, 140.0, 20.0, 20.0 ],
					"id" : "obj-3",
					"presentation" : 1,
					"numoutlets" : 1
				}

			}
, 			{
				"box" : 				{
					"maxclass" : "newobj",
					"text" : "fingerpinger",
					"outlettype" : [ "list", "list" ],
					"fontsize" : 10.0,
					"numinlets" : 1,
					"patching_rect" : [ 44.0, 168.0, 63.0, 18.0 ],
					"id" : "obj-1",
					"fontname" : "Arial",
					"numoutlets" : 2
				}

			}
 ],
		"lines" : [ 			{
				"patchline" : 				{
					"source" : [ "obj-120", 0 ],
					"destination" : [ "obj-107", 1 ],
					"hidden" : 0,
					"midpoints" : [  ]
				}

			}
, 			{
				"patchline" : 				{
					"source" : [ "obj-106", 0 ],
					"destination" : [ "obj-120", 0 ],
					"hidden" : 0,
					"midpoints" : [  ]
				}

			}
, 			{
				"patchline" : 				{
					"source" : [ "obj-23", 0 ],
					"destination" : [ "obj-115", 0 ],
					"hidden" : 0,
					"midpoints" : [  ]
				}

			}
, 			{
				"patchline" : 				{
					"source" : [ "obj-106", 0 ],
					"destination" : [ "obj-112", 0 ],
					"hidden" : 0,
					"midpoints" : [  ]
				}

			}
, 			{
				"patchline" : 				{
					"source" : [ "obj-107", 0 ],
					"destination" : [ "obj-2", 3 ],
					"hidden" : 0,
					"midpoints" : [  ]
				}

			}
, 			{
				"patchline" : 				{
					"source" : [ "obj-106", 0 ],
					"destination" : [ "obj-107", 0 ],
					"hidden" : 0,
					"midpoints" : [  ]
				}

			}
, 			{
				"patchline" : 				{
					"source" : [ "obj-23", 0 ],
					"destination" : [ "obj-106", 0 ],
					"hidden" : 0,
					"midpoints" : [  ]
				}

			}
, 			{
				"patchline" : 				{
					"source" : [ "obj-61", 0 ],
					"destination" : [ "obj-2", 2 ],
					"hidden" : 0,
					"midpoints" : [  ]
				}

			}
, 			{
				"patchline" : 				{
					"source" : [ "obj-5", 0 ],
					"destination" : [ "obj-2", 1 ],
					"hidden" : 0,
					"midpoints" : [ 195.5, 197.0, 109.5, 197.0 ]
				}

			}
, 			{
				"patchline" : 				{
					"source" : [ "obj-2", 0 ],
					"destination" : [ "obj-9", 0 ],
					"hidden" : 0,
					"midpoints" : [  ]
				}

			}
, 			{
				"patchline" : 				{
					"source" : [ "obj-16", 0 ],
					"destination" : [ "obj-2", 1 ],
					"hidden" : 0,
					"midpoints" : [  ]
				}

			}
, 			{
				"patchline" : 				{
					"source" : [ "obj-15", 0 ],
					"destination" : [ "obj-2", 1 ],
					"hidden" : 0,
					"midpoints" : [  ]
				}

			}
, 			{
				"patchline" : 				{
					"source" : [ "obj-22", 0 ],
					"destination" : [ "obj-2", 1 ],
					"hidden" : 0,
					"midpoints" : [  ]
				}

			}
, 			{
				"patchline" : 				{
					"source" : [ "obj-24", 0 ],
					"destination" : [ "obj-2", 1 ],
					"hidden" : 0,
					"midpoints" : [  ]
				}

			}
, 			{
				"patchline" : 				{
					"source" : [ "obj-44", 0 ],
					"destination" : [ "obj-2", 1 ],
					"hidden" : 0,
					"midpoints" : [  ]
				}

			}
, 			{
				"patchline" : 				{
					"source" : [ "obj-53", 0 ],
					"destination" : [ "obj-46", 0 ],
					"hidden" : 0,
					"midpoints" : [  ]
				}

			}
, 			{
				"patchline" : 				{
					"source" : [ "obj-40", 0 ],
					"destination" : [ "obj-53", 0 ],
					"hidden" : 0,
					"midpoints" : [  ]
				}

			}
, 			{
				"patchline" : 				{
					"source" : [ "obj-54", 0 ],
					"destination" : [ "obj-42", 0 ],
					"hidden" : 0,
					"midpoints" : [  ]
				}

			}
, 			{
				"patchline" : 				{
					"source" : [ "obj-42", 0 ],
					"destination" : [ "obj-43", 0 ],
					"hidden" : 0,
					"midpoints" : [  ]
				}

			}
, 			{
				"patchline" : 				{
					"source" : [ "obj-41", 0 ],
					"destination" : [ "obj-28", 0 ],
					"hidden" : 0,
					"midpoints" : [  ]
				}

			}
, 			{
				"patchline" : 				{
					"source" : [ "obj-28", 0 ],
					"destination" : [ "obj-29", 0 ],
					"hidden" : 0,
					"midpoints" : [  ]
				}

			}
, 			{
				"patchline" : 				{
					"source" : [ "obj-43", 0 ],
					"destination" : [ "obj-44", 0 ],
					"hidden" : 0,
					"midpoints" : [  ]
				}

			}
, 			{
				"patchline" : 				{
					"source" : [ "obj-29", 0 ],
					"destination" : [ "obj-24", 0 ],
					"hidden" : 0,
					"midpoints" : [  ]
				}

			}
, 			{
				"patchline" : 				{
					"source" : [ "obj-27", 0 ],
					"destination" : [ "obj-22", 0 ],
					"hidden" : 0,
					"midpoints" : [  ]
				}

			}
, 			{
				"patchline" : 				{
					"source" : [ "obj-26", 0 ],
					"destination" : [ "obj-27", 0 ],
					"hidden" : 0,
					"midpoints" : [  ]
				}

			}
, 			{
				"patchline" : 				{
					"source" : [ "obj-27", 0 ],
					"destination" : [ "obj-39", 0 ],
					"hidden" : 0,
					"midpoints" : [  ]
				}

			}
, 			{
				"patchline" : 				{
					"source" : [ "obj-37", 0 ],
					"destination" : [ "obj-26", 0 ],
					"hidden" : 0,
					"midpoints" : [  ]
				}

			}
, 			{
				"patchline" : 				{
					"source" : [ "obj-21", 0 ],
					"destination" : [ "obj-17", 0 ],
					"hidden" : 0,
					"midpoints" : [  ]
				}

			}
, 			{
				"patchline" : 				{
					"source" : [ "obj-19", 0 ],
					"destination" : [ "obj-11", 0 ],
					"hidden" : 0,
					"midpoints" : [  ]
				}

			}
, 			{
				"patchline" : 				{
					"source" : [ "obj-17", 0 ],
					"destination" : [ "obj-16", 0 ],
					"hidden" : 0,
					"midpoints" : [  ]
				}

			}
, 			{
				"patchline" : 				{
					"source" : [ "obj-17", 0 ],
					"destination" : [ "obj-18", 0 ],
					"hidden" : 0,
					"midpoints" : [  ]
				}

			}
, 			{
				"patchline" : 				{
					"source" : [ "obj-18", 0 ],
					"destination" : [ "obj-17", 0 ],
					"hidden" : 0,
					"midpoints" : [  ]
				}

			}
, 			{
				"patchline" : 				{
					"source" : [ "obj-11", 0 ],
					"destination" : [ "obj-15", 0 ],
					"hidden" : 0,
					"midpoints" : [  ]
				}

			}
, 			{
				"patchline" : 				{
					"source" : [ "obj-3", 0 ],
					"destination" : [ "obj-7", 0 ],
					"hidden" : 0,
					"midpoints" : [ 35.5, 191.0, 22.0, 191.0, 22.0, 395.0, 36.5, 395.0 ]
				}

			}
, 			{
				"patchline" : 				{
					"source" : [ "obj-9", 0 ],
					"destination" : [ "obj-7", 1 ],
					"hidden" : 0,
					"midpoints" : [  ]
				}

			}
, 			{
				"patchline" : 				{
					"source" : [ "obj-9", 0 ],
					"destination" : [ "obj-7", 0 ],
					"hidden" : 0,
					"midpoints" : [  ]
				}

			}
, 			{
				"patchline" : 				{
					"source" : [ "obj-4", 0 ],
					"destination" : [ "obj-8", 0 ],
					"hidden" : 0,
					"midpoints" : [  ]
				}

			}
, 			{
				"patchline" : 				{
					"source" : [ "obj-3", 0 ],
					"destination" : [ "obj-1", 0 ],
					"hidden" : 0,
					"midpoints" : [  ]
				}

			}
, 			{
				"patchline" : 				{
					"source" : [ "obj-33", 0 ],
					"destination" : [ "obj-34", 0 ],
					"hidden" : 0,
					"midpoints" : [ 72.762329, 559.892273, 53.420776, 559.892273, 53.420776, 506.782196, 72.762329, 506.782196 ]
				}

			}
, 			{
				"patchline" : 				{
					"source" : [ "obj-32", 0 ],
					"destination" : [ "obj-34", 0 ],
					"hidden" : 0,
					"midpoints" : [  ]
				}

			}
, 			{
				"patchline" : 				{
					"source" : [ "obj-34", 0 ],
					"destination" : [ "obj-33", 0 ],
					"hidden" : 0,
					"midpoints" : [  ]
				}

			}
, 			{
				"patchline" : 				{
					"source" : [ "obj-31", 0 ],
					"destination" : [ "obj-20", 0 ],
					"hidden" : 0,
					"midpoints" : [  ]
				}

			}
, 			{
				"patchline" : 				{
					"source" : [ "obj-30", 0 ],
					"destination" : [ "obj-20", 0 ],
					"hidden" : 0,
					"midpoints" : [ 36.042862, 625.763428, 13.420778, 625.763428, 13.420778, 571.49884, 36.042862, 571.49884 ]
				}

			}
, 			{
				"patchline" : 				{
					"source" : [ "obj-20", 0 ],
					"destination" : [ "obj-30", 0 ],
					"hidden" : 0,
					"midpoints" : [  ]
				}

			}
, 			{
				"patchline" : 				{
					"source" : [ "obj-35", 0 ],
					"destination" : [ "obj-32", 0 ],
					"hidden" : 0,
					"midpoints" : [  ]
				}

			}
, 			{
				"patchline" : 				{
					"source" : [ "obj-33", 0 ],
					"destination" : [ "obj-31", 0 ],
					"hidden" : 0,
					"midpoints" : [  ]
				}

			}
, 			{
				"patchline" : 				{
					"source" : [ "obj-4", 0 ],
					"destination" : [ "obj-5", 0 ],
					"hidden" : 0,
					"midpoints" : [ 134.5, 154.0, 195.5, 154.0 ]
				}

			}
, 			{
				"patchline" : 				{
					"source" : [ "obj-10", 0 ],
					"destination" : [ "obj-12", 0 ],
					"hidden" : 0,
					"midpoints" : [ 166.5, 302.0, 266.5, 302.0 ]
				}

			}
, 			{
				"patchline" : 				{
					"source" : [ "obj-3", 0 ],
					"destination" : [ "obj-10", 0 ],
					"hidden" : 0,
					"midpoints" : [ 35.5, 160.0, 166.5, 160.0 ]
				}

			}
, 			{
				"patchline" : 				{
					"source" : [ "obj-1", 0 ],
					"destination" : [ "obj-10", 1 ],
					"hidden" : 0,
					"midpoints" : [  ]
				}

			}
, 			{
				"patchline" : 				{
					"source" : [ "obj-1", 1 ],
					"destination" : [ "obj-10", 2 ],
					"hidden" : 0,
					"midpoints" : [  ]
				}

			}
, 			{
				"patchline" : 				{
					"source" : [ "obj-62", 0 ],
					"destination" : [ "obj-6", 0 ],
					"hidden" : 0,
					"midpoints" : [  ]
				}

			}
, 			{
				"patchline" : 				{
					"source" : [ "obj-6", 0 ],
					"destination" : [ "obj-13", 0 ],
					"hidden" : 0,
					"midpoints" : [  ]
				}

			}
, 			{
				"patchline" : 				{
					"source" : [ "obj-13", 0 ],
					"destination" : [ "obj-3", 0 ],
					"hidden" : 0,
					"midpoints" : [  ]
				}

			}
, 			{
				"patchline" : 				{
					"source" : [ "obj-36", 0 ],
					"destination" : [ "obj-9", 0 ],
					"hidden" : 0,
					"midpoints" : [  ]
				}

			}
, 			{
				"patchline" : 				{
					"source" : [ "obj-25", 0 ],
					"destination" : [ "obj-40", 0 ],
					"hidden" : 0,
					"midpoints" : [  ]
				}

			}
, 			{
				"patchline" : 				{
					"source" : [ "obj-101", 0 ],
					"destination" : [ "obj-98", 0 ],
					"hidden" : 0,
					"midpoints" : [ 382.5, 926.5, 112.5, 926.5 ]
				}

			}
, 			{
				"patchline" : 				{
					"source" : [ "obj-100", 0 ],
					"destination" : [ "obj-98", 0 ],
					"hidden" : 0,
					"midpoints" : [ 322.5, 926.5, 112.5, 926.5 ]
				}

			}
, 			{
				"patchline" : 				{
					"source" : [ "obj-92", 0 ],
					"destination" : [ "obj-99", 0 ],
					"hidden" : 0,
					"midpoints" : [  ]
				}

			}
, 			{
				"patchline" : 				{
					"source" : [ "obj-99", 0 ],
					"destination" : [ "obj-98", 0 ],
					"hidden" : 0,
					"midpoints" : [ 232.5, 926.5, 112.5, 926.5 ]
				}

			}
, 			{
				"patchline" : 				{
					"source" : [ "obj-72", 0 ],
					"destination" : [ "obj-93", 0 ],
					"hidden" : 1,
					"midpoints" : [  ]
				}

			}
, 			{
				"patchline" : 				{
					"source" : [ "obj-76", 0 ],
					"destination" : [ "obj-79", 1 ],
					"hidden" : 0,
					"midpoints" : [  ]
				}

			}
, 			{
				"patchline" : 				{
					"source" : [ "obj-77", 0 ],
					"destination" : [ "obj-95", 0 ],
					"hidden" : 0,
					"midpoints" : [ 162.5, 1294.5, 112.5, 1294.5 ]
				}

			}
, 			{
				"patchline" : 				{
					"source" : [ "obj-77", 0 ],
					"destination" : [ "obj-95", 1 ],
					"hidden" : 0,
					"midpoints" : [ 162.5, 1294.5, 138.5, 1294.5 ]
				}

			}
, 			{
				"patchline" : 				{
					"source" : [ "obj-78", 0 ],
					"destination" : [ "obj-77", 0 ],
					"hidden" : 0,
					"midpoints" : [  ]
				}

			}
, 			{
				"patchline" : 				{
					"source" : [ "obj-79", 0 ],
					"destination" : [ "obj-80", 0 ],
					"hidden" : 0,
					"midpoints" : [  ]
				}

			}
, 			{
				"patchline" : 				{
					"source" : [ "obj-80", 0 ],
					"destination" : [ "obj-83", 0 ],
					"hidden" : 0,
					"midpoints" : [ 392.5, 1163.5, 482.5, 1163.5 ]
				}

			}
, 			{
				"patchline" : 				{
					"source" : [ "obj-80", 0 ],
					"destination" : [ "obj-74", 0 ],
					"hidden" : 0,
					"midpoints" : [  ]
				}

			}
, 			{
				"patchline" : 				{
					"source" : [ "obj-93", 0 ],
					"destination" : [ "obj-98", 0 ],
					"hidden" : 0,
					"midpoints" : [ 572.5, 926.5, 112.5, 926.5 ]
				}

			}
, 			{
				"patchline" : 				{
					"source" : [ "obj-81", 0 ],
					"destination" : [ "obj-75", 0 ],
					"hidden" : 0,
					"midpoints" : [ 482.5, 1248.0, 548.5, 1248.0, 548.5, 999.0, 574.5, 999.0 ]
				}

			}
, 			{
				"patchline" : 				{
					"source" : [ "obj-81", 0 ],
					"destination" : [ "obj-82", 0 ],
					"hidden" : 0,
					"midpoints" : [ 482.5, 1248.5, 242.5, 1248.5 ]
				}

			}
, 			{
				"patchline" : 				{
					"source" : [ "obj-83", 0 ],
					"destination" : [ "obj-81", 0 ],
					"hidden" : 0,
					"midpoints" : [  ]
				}

			}
, 			{
				"patchline" : 				{
					"source" : [ "obj-84", 0 ],
					"destination" : [ "obj-80", 1 ],
					"hidden" : 0,
					"midpoints" : [  ]
				}

			}
, 			{
				"patchline" : 				{
					"source" : [ "obj-73", 0 ],
					"destination" : [ "obj-78", 0 ],
					"hidden" : 0,
					"midpoints" : [  ]
				}

			}
, 			{
				"patchline" : 				{
					"source" : [ "obj-94", 0 ],
					"destination" : [ "obj-95", 0 ],
					"hidden" : 0,
					"midpoints" : [  ]
				}

			}
, 			{
				"patchline" : 				{
					"source" : [ "obj-94", 0 ],
					"destination" : [ "obj-95", 1 ],
					"hidden" : 0,
					"midpoints" : [ 112.5, 1294.5, 138.5, 1294.5 ]
				}

			}
, 			{
				"patchline" : 				{
					"source" : [ "obj-86", 0 ],
					"destination" : [ "obj-79", 0 ],
					"hidden" : 0,
					"midpoints" : [ 272.5, 1044.5, 392.5, 1044.5 ]
				}

			}
, 			{
				"patchline" : 				{
					"source" : [ "obj-86", 0 ],
					"destination" : [ "obj-85", 0 ],
					"hidden" : 0,
					"midpoints" : [  ]
				}

			}
, 			{
				"patchline" : 				{
					"source" : [ "obj-88", 0 ],
					"destination" : [ "obj-102", 0 ],
					"hidden" : 0,
					"midpoints" : [  ]
				}

			}
, 			{
				"patchline" : 				{
					"source" : [ "obj-89", 0 ],
					"destination" : [ "obj-103", 0 ],
					"hidden" : 0,
					"midpoints" : [  ]
				}

			}
, 			{
				"patchline" : 				{
					"source" : [ "obj-90", 0 ],
					"destination" : [ "obj-101", 0 ],
					"hidden" : 0,
					"midpoints" : [  ]
				}

			}
, 			{
				"patchline" : 				{
					"source" : [ "obj-91", 0 ],
					"destination" : [ "obj-100", 0 ],
					"hidden" : 0,
					"midpoints" : [  ]
				}

			}
, 			{
				"patchline" : 				{
					"source" : [ "obj-97", 0 ],
					"destination" : [ "obj-96", 0 ],
					"hidden" : 0,
					"midpoints" : [  ]
				}

			}
, 			{
				"patchline" : 				{
					"source" : [ "obj-103", 0 ],
					"destination" : [ "obj-98", 0 ],
					"hidden" : 0,
					"midpoints" : [ 442.5, 926.5, 112.5, 926.5 ]
				}

			}
, 			{
				"patchline" : 				{
					"source" : [ "obj-102", 0 ],
					"destination" : [ "obj-98", 0 ],
					"hidden" : 0,
					"midpoints" : [ 502.5, 926.5, 112.5, 926.5 ]
				}

			}
, 			{
				"patchline" : 				{
					"source" : [ "obj-98", 2 ],
					"destination" : [ "obj-84", 0 ],
					"hidden" : 0,
					"midpoints" : [ 174.5, 973.5, 462.5, 973.5 ]
				}

			}
, 			{
				"patchline" : 				{
					"source" : [ "obj-98", 0 ],
					"destination" : [ "obj-94", 0 ],
					"hidden" : 0,
					"midpoints" : [  ]
				}

			}
, 			{
				"patchline" : 				{
					"source" : [ "obj-98", 1 ],
					"destination" : [ "obj-86", 0 ],
					"hidden" : 0,
					"midpoints" : [ 143.5, 1000.5, 272.5, 1000.5 ]
				}

			}
, 			{
				"patchline" : 				{
					"source" : [ "obj-66", 0 ],
					"destination" : [ "obj-70", 0 ],
					"hidden" : 0,
					"midpoints" : [  ]
				}

			}
, 			{
				"patchline" : 				{
					"source" : [ "obj-66", 0 ],
					"destination" : [ "obj-98", 0 ],
					"hidden" : 0,
					"midpoints" : [  ]
				}

			}
, 			{
				"patchline" : 				{
					"source" : [ "obj-65", 0 ],
					"destination" : [ "obj-66", 0 ],
					"hidden" : 0,
					"midpoints" : [  ]
				}

			}
, 			{
				"patchline" : 				{
					"source" : [ "obj-82", 0 ],
					"destination" : [ "obj-64", 0 ],
					"hidden" : 0,
					"midpoints" : [  ]
				}

			}
, 			{
				"patchline" : 				{
					"source" : [ "obj-58", 0 ],
					"destination" : [ "obj-63", 0 ],
					"hidden" : 0,
					"midpoints" : [  ]
				}

			}
, 			{
				"patchline" : 				{
					"source" : [ "obj-63", 0 ],
					"destination" : [ "obj-61", 0 ],
					"hidden" : 0,
					"midpoints" : [  ]
				}

			}
, 			{
				"patchline" : 				{
					"source" : [ "obj-61", 0 ],
					"destination" : [ "obj-56", 0 ],
					"hidden" : 0,
					"midpoints" : [  ]
				}

			}
, 			{
				"patchline" : 				{
					"source" : [ "obj-81", 0 ],
					"destination" : [ "obj-58", 0 ],
					"hidden" : 0,
					"midpoints" : [  ]
				}

			}
, 			{
				"patchline" : 				{
					"source" : [ "obj-82", 1 ],
					"destination" : [ "obj-38", 0 ],
					"hidden" : 0,
					"midpoints" : [  ]
				}

			}
, 			{
				"patchline" : 				{
					"source" : [ "obj-8", 0 ],
					"destination" : [ "obj-2", 0 ],
					"hidden" : 0,
					"midpoints" : [ 134.5, 194.0, 71.5, 194.0 ]
				}

			}
, 			{
				"patchline" : 				{
					"source" : [ "obj-1", 0 ],
					"destination" : [ "obj-2", 0 ],
					"hidden" : 0,
					"midpoints" : [  ]
				}

			}
, 			{
				"patchline" : 				{
					"source" : [ "obj-1", 1 ],
					"destination" : [ "obj-2", 1 ],
					"hidden" : 0,
					"midpoints" : [ 97.5, 182.0, 109.5, 182.0 ]
				}

			}
 ]
	}

}
